<svg id="Layer_1" data-name="Layer 1" xmlns="http://www.w3.org/2000/svg" viewBox="0 0 486.171 486.176">
    <defs>
        <style>.cls-1{fill:#fff;}</style>
    </defs>

    <path class="cls-1" d="M7.594,437.352V425.961c2.488-13.437,10.928-22.939,20.28-32.224Q97.242,324.866,166.219,255.6a33.476,33.476,0,0,1,4.871-3.364c-2.222-2.349-3.365-3.617-4.569-4.822Q97.071,177.954,27.539,108.575C18.287,99.386,10.028,89.93,7.594,76.648V65.258C9.948,51.765,18.027,41.9,27.808,33.034c3.863-3.5,7.39-7.37,11.114-11.027a61.462,61.462,0,0,1,4.921-4.451C61.364,3.731,84.9,5.46,101.433,21.963q72.531,72.414,144.924,144.965c1.314,1.316,2.153,3.107,3.349,4.877,2.364-2.242,3.628-3.388,4.834-4.593q56.207-56.193,112.405-112.394c11.632-11.629,23.083-23.451,34.984-34.8C417.3,5.357,440.734,3.965,456.942,17.462a214.508,214.508,0,0,1,27.469,27.459c14.225,17.092,11.886,40.846-4.706,57.461Q407.281,174.9,334.776,247.342c-1.288,1.288-2.52,2.633-4.226,4.42,1.877,1.6,3.415,2.738,4.754,4.076q72.159,72.114,144.273,144.275c18.832,18.863,18.773,44.3.02,63.207-3.787,3.818-7.776,7.451-11.371,11.441-8.652,9.606-18.469,17.208-31.585,19.544H425.25c-11.13-2.423-20.161-8.119-28.224-16.238q-71.223-71.711-142.85-143.02c-1.091-1.092-2.257-2.108-3.579-3.336-1.427,1.354-2.692,2.5-3.9,3.708Q177.237,404.868,107.862,474.4c-9.188,9.254-18.647,17.486-31.925,19.9H64.547c-11.854-2.391-21.533-8.4-29.443-17.48a84.674,84.674,0,0,0-7.344-7.355C17.954,460.683,9.993,450.773,7.594,437.352Z" transform="translate(-7.594 -8.129)"/>
</svg>