<?xml version="1.0" encoding="utf-8"?>
<!-- Generator: Adobe Illustrator 23.0.0, SVG Export Plug-In . SVG Version: 6.00 Build 0)  -->
<svg version="1.1" id="Layer_1" xmlns="http://www.w3.org/2000/svg" xmlns:xlink="http://www.w3.org/1999/xlink" x="0px" y="0px"
	 viewBox="0 0 500 500" style="enable-background:new 0 0 500 500;" xml:space="preserve">
<g>
	<path d="M490.18,274.98c-1.98,8.98-4.49,17.77-10.01,25.34c-11.62,15.93-27.3,24.08-47.04,24.12
		c-33.92,0.07-67.85,0.02-101.77,0.02c-1.67,0-3.35,0-5.51,0c0,5.18,0.05,9.96-0.01,14.73c-0.15,11.49-7.93,19.74-18.59,19.78
		c-10.67,0.04-18.61-8.21-18.72-19.64c-0.1-10.74-0.08-21.47-0.01-32.21c0.09-12.35,7.78-19.97,20.26-19.99
		c40.61-0.05,81.23-0.01,121.84-0.02c15.16,0,22.2-7.07,22.21-22.29c0-10.43,0.02-20.85,0-31.28c-0.03-13.64-7.44-21.11-21.03-21.12
		c-40.46-0.02-80.92,0-121.38-0.01c-14.81,0-21.91-7.17-21.92-22.1c-0.01-39.84,0-79.67-0.01-119.51c0-14.55-7.23-21.77-21.77-21.78
		c-10.27-0.01-20.54-0.01-30.81,0c-14.94,0.01-22.1,7.1-22.1,21.92c-0.01,39.84,0,79.67-0.01,119.51c0,14.83-7.16,21.96-22.05,21.96
		c-40.15,0.01-80.3,0-120.44,0.01c-14.58,0-21.81,7.21-21.83,21.73c-0.01,10.74-0.03,21.47,0.01,32.21
		c0.05,13.26,7.57,20.73,20.93,20.74c40.46,0.02,80.92,0,121.38,0.01c14.86,0,22,7.15,22.01,22.01c0.01,40.46,0,80.92,0.01,121.38
		c0,14.62,7.18,21.86,21.68,21.87c10.89,0.01,21.79,0.05,32.68-0.01c12.16-0.06,19.4-6.88,20.35-19.02
		c0.86-11.09,9.15-18.8,19.61-18.26c10.47,0.55,17.87,8.99,17.67,20.17c-0.5,27.67-21.71,51.4-50.31,53.9
		c-16.95,1.48-34.32,1.38-51.23-0.5c-27.64-3.07-47.54-26.65-47.74-54.6c-0.25-34.54-0.07-69.09-0.07-103.64c0-1.83,0-3.66,0-5.96
		c-2.08,0-3.75,0-5.41,0c-33.46,0-66.91,0.02-100.37-0.01c-34.36-0.02-58.57-24.09-58.51-58.36c0.02-14.45-0.74-29.05,0.98-43.33
		c3.28-27.33,26.63-47.37,54.29-47.6c34.23-0.29,68.47-0.08,102.7-0.09c1.86,0,3.72,0,6.32,0c0-1.8,0-3.43,0-5.06
		c0-32.83,0-65.67,0-98.5c0-31.84,16.99-52.68,48.25-59.22c0.44-0.09,0.83-0.4,1.24-0.61c16.81,0,33.61,0,50.42,0
		c0.41,0.21,0.8,0.52,1.24,0.62c31.2,6.51,48.24,27.4,48.24,59.15c0,32.8,0,65.61,0,98.41c0,1.65,0,3.29,0,5.22c2.3,0,3.99,0,5.68,0
		c33.89,0,67.78-0.06,101.68,0.02c19.71,0.05,35.37,8.22,46.97,24.14c5.51,7.57,8.02,16.35,10,25.32
		C490.18,241.37,490.18,258.18,490.18,274.98z"/>
</g>
</svg>
