<svg id="Layer_1" data-name="Layer 1" xmlns="http://www.w3.org/2000/svg" viewBox="0 0 355.16672 384.03679"><title>magnet</title><path d="M239.25,443c-8.2571-1.22516-16.66389-1.82806-24.74789-3.77275C142.02659,421.7922,96.25761,376.83157,77.3224,304.801c-5.8286-22.17231-5.03688-44.78169-2.80659-67.4241,2.17975-22.12932,3.83728-44.31009,5.723-66.46836q3.24176-38.09225,6.48076-76.18471c.59241-6.97145,1.21891-13.94043,1.747-20.91681.67708-8.94485,6.71423-14.76938,15.65569-14.79124q29.623-.07239,59.24633-.00342c9.78392.01951,16.21079,6.54966,15.81548,16.42536-.95972,23.97549-2.10778,47.94348-3.19207,71.914q-2.12618,47.004-4.27784,94.00688c-.47133,10.22816-1.21445,20.40415.69174,30.63362,7.4243,39.84212,46.11967,68.32056,86.34273,63.3205,36.96075-4.59451,63.95711-29.14275,69.85675-65.25913,1.88472-11.538.75741-23.65377.27644-35.47542-1.143-28.09347-2.72255-56.16919-4.1272-84.252-1.16114-23.21508-2.36288-46.42826-3.44627-69.647a41.15244,41.15244,0,0,1,.4422-10.76885,13.938,13.938,0,0,1,13.62607-10.84863q31.30935-.18543,62.62031-.00113a14.64049,14.64049,0,0,1,14.43273,13.63185c2.34284,27.00933,4.56533,54.02907,6.85811,81.04278,2.37728,28.0095,4.31948,56.06591,7.29329,84.01227,3.75174,35.25672.57353,69.33018-14.68366,101.71957-3.02653,6.425-6.46218,12.67955-10.05489,18.81013-4.76551,8.13183-13.72113,10.48821-21.20217,5.91822-7.25542-4.43223-9.262-13.40737-4.45894-21.29144,15.50338-25.44871,23.12555-53.05428,21.7819-82.79782-.83956-18.58455-2.87292-37.1163-4.42547-55.66716q-2.12554-25.39748-4.37361-50.78467c-.12816-1.47609-.35788-2.94335-.54868-4.48086h-33.8958c.20014,3.51216.41409,6.83755.57536,10.16549,1.349,27.83561,2.49617,55.68282,4.11194,83.50286.80207,13.80955.75478,27.45972-2.74192,40.931-11.7228,45.163-49.14459,76.98118-95.763,81.42924-52.86043,5.04364-100.70755-27.20812-115.61761-77.95669a109.85705,109.85705,0,0,1-4.15493-36.30789q2.2575-48.87414,4.46223-97.75074c.05594-1.23259.00714-2.46993.00714-3.94562h-33.3745c-.64091,7.24914-1.30656,14.55247-1.929,21.85949-2.18454,25.64352-3.90461,51.33595-6.6167,76.92337-7.169,67.63686,30.16264,130.66785,93.549,154.9908,43.13669,16.55262,85.46843,12.96078,126.12522-9.19812a29.86922,29.86922,0,0,1,7.11335-3.22094,14.79073,14.79073,0,0,1,17.28985,9.16137c2.65326,6.93814.04033,14.38817-6.68621,18.42347-12.36674,7.41889-25.37025,13.65-39.35,17.13245-12.18684,3.03582-24.70411,4.7447-37.07392,7.04789-.97135.18086-1.931.42467-2.896.63922ZM386.25854,118.85719c-.87076-10.095-1.71245-19.853-2.55691-29.64319H351.74881c.51968,9.99467,1.02734,19.7581,1.54131,29.64319Zm-271.51174-.0427h32.44905c.4509-9.96055.89391-19.74717,1.33917-29.5835H117.28129C116.43438,99.11642,115.60544,108.79208,114.7468,118.81449Z" transform="translate(-72.84844 -58.96321)"/></svg>