<svg id="Layer_1" data-name="Layer 1" xmlns="http://www.w3.org/2000/svg" viewBox="0 0 489.362 508.122"><title>pause</title><path d="M134.253,2.289c2.391.538,4.775,1.1,7.172,1.608,37.944,8,63.591,39.283,63.685,79.383q.408,173.1-.008,346.206c-.1,40.093-25.849,71.39-63.785,79.279a40.519,40.519,0,0,1-8.32,1.242c-17.834-.1-35.805.952-53.473-.876-36.2-3.746-65.781-36.468-67.46-72.712q-.343-7.426-.356-14.869-.03-167.895-.062-335.79c-.016-18.739,4.263-36.011,15.659-51.128C40.552,17.061,58.025,6.44,79.879,3.187a17.118,17.118,0,0,0,2.772-.9ZM51.4,255.83c0,57.217.253,114.435-.112,171.649-.168,26.334,18.364,42.851,40.048,43.16,11.408.163,22.823.212,34.229-.019,13.153-.265,23.975-5.524,32.032-16.088,6.328-8.3,7.943-17.89,7.937-28.039q-.071-134.689-.027-269.38c0-24.309.123-48.618-.036-72.926-.167-25.592-16.9-42.136-42.38-42.2-10.253-.026-20.506-.056-30.758.012-9.346.062-17.939,2.541-25.392,8.384-11.3,8.859-15.6,20.754-15.579,34.79Q51.5,170.5,51.4,255.83Z" transform="translate(-11.646 -2.289)"/><path d="M429.972,2.289c2.391.538,4.776,1.1,7.174,1.609,37.953,8,63.536,39.3,63.687,79.411.308,82.024-.01,164.051.175,246.075.04,18.194-15.573,25-26.043,21.163-7.644-2.8-12.324-8.1-13.366-16.274a63.128,63.128,0,0,1-.361-7.917q-.026-120.309.01-240.618c.006-9.988-1.7-19.4-7.895-27.557-8.032-10.581-18.85-15.859-32.006-16.14-11.075-.237-22.164-.261-33.238-.007-23.424.538-39.578,17.376-39.962,41.6-.193,12.234-.037,24.474-.037,36.712q0,153.053-.029,306.106c0,10.149,1.6,19.746,7.914,28.049,8.042,10.575,18.863,15.841,32.017,16.12,11.075.235,22.16.16,33.239.026,22.1-.268,38.747-17.235,39.7-37.19a36.1,36.1,0,0,1,1.3-8.3,19.688,19.688,0,0,1,21.442-13.822c10.153,1.439,17.282,9.809,17.108,20.446-.366,22.441-8.7,41.506-24.985,56.92-14.788,14-32.555,21.322-52.888,21.538-15.684.166-31.5.6-47.043-1.091-35.784-3.908-65.442-36.648-67.1-72.608q-.354-7.677-.362-15.369-.03-167.688-.063-335.377c-.016-18.743,4.253-36.022,15.65-51.145,13.247-17.578,30.722-28.2,52.583-31.458a17.129,17.129,0,0,0,2.773-.9Z" transform="translate(-11.646 -2.289)"/></svg>