<svg id="Layer_1" data-name="Layer 1" xmlns="http://www.w3.org/2000/svg" viewBox="0 0 377.751 492.36"><title>remove</title><path d="M146.063,497.117c-3.571-.789-7.171-1.468-10.708-2.384a76.75,76.75,0,0,1-57.793-71.286c-.131-2.878-.121-5.764-.121-8.646q-.009-146.289.053-292.579c0-3.945-.442-6.462-4.835-8.283-8.308-3.446-12.1-12.209-10.267-21.072,1.807-8.729,9.089-14.875,18.656-14.946,24.34-.182,48.682-.081,73.023-.092h6.369c0-2.421.145-4.441-.021-6.434C157.16,32.451,187.357,2.3,226.977,4.915c18.018,1.189,36.179.166,54.275.21,34.045.084,59.768,25.826,59.914,59.91.017,3.994,0,7.988,0,12.794h5.777c24.182,0,48.364-.1,72.544.049,13.606.084,22.518,10.848,19.67,23.441-1.353,5.978-4.8,10.766-10.512,12.852-4.09,1.494-4.546,3.769-4.541,7.469q.139,99.209.037,198.416a39.631,39.631,0,0,1-.755,9.535c-2.2,8.762-10.654,14.423-20.009,13.823a18.854,18.854,0,0,1-17.229-16.025,53.612,53.612,0,0,1-.4-7.66q-.03-98.247-.016-196.495v-6.575H116.124c-.082,1.657-.239,3.348-.239,5.039q-.018,147.972.007,295.943c.012,25.1,16.11,41.03,41.241,41.035q93.442.017,186.886,0c24.508,0,39.406-13.656,41.7-38.191,1.033-11.045,7.809-18.361,17.851-19.272,8.81-.8,18.411,5.3,19.684,14.127a61.942,61.942,0,0,1-.871,20.911c-6.494,31.575-32.1,55.238-64.136,60.026a17.928,17.928,0,0,0-2.7.838Zm52.9-419.636h103.69c0-5.453.32-10.584-.068-15.661A19.828,19.828,0,0,0,283.45,43.666q-32.628-.382-65.262,0a19.83,19.83,0,0,0-19.161,18.118C198.64,66.859,198.959,71.99,198.959,77.481Z" transform="translate(-61.938 -4.758)"/><path d="M270.021,287.143c0,26.9.08,53.8-.036,80.7-.059,13.789-12.677,22.957-25.358,18.689-7.92-2.666-13-9.841-13.02-18.789-.059-21.454-.021-42.909-.021-64.364q0-48.273.028-96.546A18.891,18.891,0,0,1,244.5,188.459c7.442-2.627,16.264-.744,20.722,5.788a26.452,26.452,0,0,1,4.6,13.645C270.242,234.3,270.023,260.724,270.021,287.143Z" transform="translate(-61.938 -4.758)"/><path d="M343.453,287.66q0,39.381-.018,78.764c-.022,10.74-4.987,17.8-14.061,20.375a18.981,18.981,0,0,1-23.945-15.294,37.686,37.686,0,0,1-.395-5.738c-.02-52.189-.1-104.378.138-156.567a29.042,29.042,0,0,1,3.582-13.57c3.93-6.966,12.837-9.732,20.6-7.628a19,19,0,0,1,13.9,16.579c.194,2.067.19,4.157.191,6.236Q343.464,249.238,343.453,287.66Z" transform="translate(-61.938 -4.758)"/><path d="M196.591,287.558c0,26.255.038,52.509-.02,78.764-.023,10.5-4.9,17.655-13.561,20.335a19.019,19.019,0,0,1-24.684-16.471c-.15-1.59-.164-3.2-.164-4.8q-.012-78.043.025-156.087a32.005,32.005,0,0,1,.755-8.088c2.331-8.8,10.669-14.36,20.065-13.7a18.671,18.671,0,0,1,17.174,16.026,50.693,50.693,0,0,1,.395,7.178Q196.615,249.137,196.591,287.558Z" transform="translate(-61.938 -4.758)"/></svg>