<svg id="Layer_1" data-name="Layer 1" xmlns="http://www.w3.org/2000/svg" viewBox="0 0 424.928 491.908"><title>resume</title><path d="M97.2,495.954c-9.795-2.288-19.509-4.754-28.037-10.477-19.518-13.1-30.094-31.309-31.505-54.8-.095-1.6-.087-3.2-.087-4.8q0-176.035-.036-352.069C37.524,53.569,43.8,35.93,59.012,22.328,83.446.474,113.925-1.825,142.28,15.635Q258.128,86.966,373.9,158.416c20.282,12.514,40.994,24.42,60.593,37.934,37.469,25.836,37.273,83.087-.487,108.5-23.866,16.063-48.846,30.475-73.387,45.529Q291.7,392.658,222.714,434.846c-5.521,3.386-11.151,5.542-17.709,3.555-7.224-2.188-11.9-6.958-13.458-14.251-1.541-7.236.453-13.676,6.221-18.59a46.472,46.472,0,0,1,5.939-4.048q101.679-62.3,203.391-124.554c7.778-4.759,14.01-10.634,16.018-19.934,2.91-13.479-2.305-24.642-15.345-32.688q-52.683-32.508-105.406-64.95Q211.879,103.613,121.391,47.84C106.62,38.746,89.572,41.78,80.916,55.5c-2.613,4.141-3.385,9.466-4.844,14.3a13.681,13.681,0,0,0-.112,3.827q0,175.794.005,351.588c0,15.48,7.35,26.349,20.418,30.839,7.683,2.64,14.6,1.034,21.738-2.274,4.325-2,9.414-3.647,14.053-3.4,8.472.445,14.625,6.98,16.258,15.244,1.559,7.883-1.69,16.172-9.246,19.878-7.818,3.833-16.255,6.406-24.429,9.508-1.022.388-2.1.639-3.145.954Z" transform="translate(-37.536 -4.046)"/></svg>