<svg id="Layer_1" data-name="Layer 1" xmlns="http://www.w3.org/2000/svg" viewBox="0 0 453.928 492.366"><title>scheduler</title><path d="M235.373,496.183c-8.682-1.233-17.412-2.2-26.038-3.743-47.344-8.481-87.831-30.11-121.482-64.358C53.2,392.808,31.63,350.6,25.3,301.592,15.389,224.923,38.032,158.9,93.672,104.807c27.292-26.534,59.693-44.553,96.386-54.455,13.07-3.528,26.6-5.351,40.507-8.066,0-5.5-.039-11.554.008-17.609.095-12.226,8-20.812,19.145-20.86s19.194,8.536,19.3,20.7c.055,6.062.01,12.125.01,17.966,11.413,2.083,22.466,3.743,33.352,6.155a212.813,212.813,0,0,1,77.5,34.677c38.7,27.422,67.185,63.135,83.059,107.96,22.643,63.934,17.735,126.22-13.787,186.311-5.309,10.121-16.55,13.647-26.17,8.654-9.317-4.836-13.013-16-7.895-26.025,8.927-17.494,16.035-35.581,19.655-54.935Q447.77,235.638,412.3,174.285c-20.708-35.627-50.268-61.687-88-78.011C291.559,82.108,257.335,77.45,221.863,82.948Q161.284,92.34,117.59,135.207a184.333,184.333,0,0,0-51.444,92.259c-9.366,41.224-5.172,81.153,12.266,119.6,17.171,37.858,44.186,66.959,80.462,87.02,35.333,19.541,73.307,26.949,113.569,22.152a185.961,185.961,0,0,0,87.181-33.927c6.9-4.913,14.129-6.813,22.044-2.778a18.984,18.984,0,0,1,2.582,32.4A217.321,217.321,0,0,1,334.973,479.6a222.053,222.053,0,0,1-69.912,15.93,16.084,16.084,0,0,0-2.76.652Z" transform="translate(-23.036 -3.817)"/><path d="M249.58,307.65c-21.1-.2-38.622-18.029-38.213-38.893.418-21.39,18.293-38.65,39.607-37.823,3.891.151,6.06-1.075,8.365-3.949q28.1-35.051,56.484-69.878c5.435-6.691,12.418-9.548,20.9-7.079,7.8,2.273,12.358,7.782,13.671,15.744,1.069,6.478-1.635,11.8-5.632,16.72-18.784,23.121-37.454,46.336-56.3,69.408-2.08,2.548-2.418,4.693-1.581,7.812C293.322,283.752,274.468,307.883,249.58,307.65Z" transform="translate(-23.036 -3.817)"/><path d="M125.957,36.035a18.3,18.3,0,0,1-6.9,14.748C101.767,65.3,84.506,79.852,67.022,94.129c-8.827,7.207-20.5,5.837-27.382-2.617-6.649-8.165-5.525-19.706,3.095-27.014,16.974-14.39,34.117-28.581,51.248-42.785,6.367-5.279,13.6-6.457,21.089-2.939C122.2,22.124,125.744,28.137,125.957,36.035Z" transform="translate(-23.036 -3.817)"/><path d="M373.656,36.071c.138-7.939,3.739-13.919,10.848-17.283,7.475-3.538,14.712-2.356,21.09,2.909,11.853,9.784,23.621,19.67,35.419,29.521,5.53,4.617,11.186,9.095,16.531,13.918,6.147,5.545,8.244,12.576,5.581,20.474-2.584,7.667-8.305,11.974-16.308,13.02a17.6,17.6,0,0,1-13.858-4.173q-26.44-21.912-52.743-43.99A17.825,17.825,0,0,1,373.656,36.071Z" transform="translate(-23.036 -3.817)"/></svg>