<svg id="Layer_1" data-name="Layer 1" xmlns="http://www.w3.org/2000/svg" viewBox="0 0 490.151 490.02"><title>start</title><path d="M4.521,255.264c1.226-8.651,2.184-17.35,3.723-25.945,8.432-47.114,30-87.369,64.046-120.878C105.749,75.51,145.815,55.213,192,47.009c6.111-1.086,12.309-1.685,19.237-2.612,0-5.186-.086-10.53.034-15.87a39.491,39.491,0,0,1,.81-8.985,18.807,18.807,0,0,1,20.2-13.988,19.039,19.039,0,0,1,17.159,18.179c.244,6.816.047,13.649.047,19.417,16.764,3.784,33.357,5.96,48.864,11.293,83.94,28.868,135.485,87.014,153.9,173.963,2.461,11.619,3.076,23.69,3.813,35.6.725,11.7-7.4,20.512-18.256,20.907-11.145.406-19.493-7.937-19.9-19.887C415.038,180.055,357.2,108.216,275,87.515,174.379,62.173,70.171,126.37,47.594,227.608,26.131,323.851,80.505,418.68,174.394,448.6A189.457,189.457,0,0,0,239,457.1a31.984,31.984,0,0,1,9.454.713,18.671,18.671,0,0,1,13.485,17.775,19.324,19.324,0,0,1-13.191,18.575c-1.336.442-2.675.877-4.013,1.315H216.025c-5.971-.754-11.961-1.383-17.911-2.28-48.8-7.354-91.012-28.087-126.164-62.764-33.885-33.428-55.3-73.593-63.706-120.525-1.54-8.591-2.5-17.287-3.723-25.935Z" transform="translate(-4.521 -5.459)"/><path d="M322.256,495.479c-1.766-.617-3.523-1.261-5.3-1.845-13.615-4.47-23.3-16.965-23.336-31.218-.139-54.518-.285-109.039.043-163.556.157-26.058,28.947-41.482,51.743-28.013,18.783,11.1,37.3,22.643,55.945,33.979,25.038,15.224,50.136,30.35,75.11,45.68,24.217,14.865,24.308,45.38.119,60.174q-64.807,39.635-129.845,78.889c-4.28,2.584-9.284,3.968-13.952,5.91Zm9.812-41.683,120.313-73.171L332.068,307.486Z" transform="translate(-4.521 -5.459)"/><path d="M231.755,231.357c3.564,1.321,5.883-1.032,8.384-4.162q27.168-33.993,54.636-67.746c7.806-9.648,19.372-11.305,28.163-4.1,8.592,7.042,9.311,18.585,1.642,28.1q-27.754,34.443-55.636,68.782a7.628,7.628,0,0,0-1.624,7.724c5.819,22.252-8.553,43.7-31.615,47.548-21.163,3.529-42.047-13.3-43.517-35.067C190.669,249.942,208.461,231.124,231.755,231.357Z" transform="translate(-4.521 -5.459)"/><path d="M107.918,37.735c-.234,6.252-2.424,11.254-7,15C83.405,67.079,65.928,81.477,48.239,95.608c-8.845,7.066-20.556,5.515-27.213-3.046-6.5-8.362-5.116-19.765,3.5-26.847Q50.2,44.6,76.04,23.68c6.387-5.192,13.473-6.444,20.983-2.831C104.145,24.274,107.519,30.29,107.918,37.735Z" transform="translate(-4.521 -5.459)"/><path d="M373.4,17.8c4.067,1.939,8.692,3.185,12.108,5.934,17.137,13.793,34.017,27.909,50.867,42.055,8.716,7.318,9.844,19,2.958,27.259-6.947,8.335-18.534,9.416-27.324,2.2q-25.7-21.081-51.146-42.471A18.822,18.822,0,0,1,355.1,31.168C357.9,23.852,365.037,18.923,373.4,17.8Z" transform="translate(-4.521 -5.459)"/></svg>