<svg id="Layer_1" data-name="Layer 1" xmlns="http://www.w3.org/2000/svg" viewBox="0 0 489.803 489.981"><title>stop</title><path d="M5.742,222.461c1.232-8.814,2.187-17.678,3.74-26.435C18.044,147.751,40.072,106.488,74.99,72.2,110.927,36.91,154,15.515,203.843,8.491A230.524,230.524,0,0,1,449.719,149.136a235.316,235.316,0,0,1,15.136,55.632,19.362,19.362,0,0,1-16.124,22.3c-10.413,1.64-20.17-5.7-21.791-16.751-2.464-16.8-6.512-33.18-13.549-48.625C384.626,98.565,336.4,59.127,267.908,47.437,169.057,30.566,76.167,91.487,50.19,188.406c-24.069,89.8,23.664,187.949,109.15,224.586a198.823,198.823,0,0,0,45.186,13.5c12.967,2.2,20.435,11.8,18.123,22.925-2.117,10.185-10.821,17.02-21.519,15.07-13.429-2.447-27.082-5.025-39.8-9.78C77.1,423.228,26.31,363.032,8.944,274.785c-1.531-7.78-2.156-15.738-3.2-23.613Z" transform="translate(-5.742 -6.191)"/><path d="M356.016,496.172c-10.974-2.53-22.44-3.787-32.838-7.805-49.329-19.062-78.868-54.977-84.75-107.665-7.812-69.986,40.111-130.723,109.762-141.66,68.029-10.683,135.046,38.282,145.694,106.449,11.362,72.734-36.69,138.418-109.328,149.454-2.5.379-4.991.817-7.486,1.227Zm10.6-220.113a91.047,91.047,0,0,0-90.984,90.955c.018,49.941,40.7,90.752,90.6,90.872,50.18.121,91.15-40.624,91.229-90.727A91.052,91.052,0,0,0,366.613,276.059Z" transform="translate(-5.742 -6.191)"/><path d="M255.526,165.512c0,23.284-.047,46.569.034,69.853.02,5.889-1.694,10.988-5.825,15.18Q214.646,286.16,179.49,321.71c-6.291,6.339-14.419,7.7-21.965,4.2a19.08,19.08,0,0,1-11.058-18.541c.358-5.547,3.079-9.871,6.923-13.748,20.323-20.5,40.536-41.108,60.9-61.564a9.67,9.67,0,0,0,3.009-7.545q-.121-64.591-.035-129.182c.017-14.321,12.725-23.726,25.607-19.118,7.8,2.789,12.62,9.906,12.638,18.971Q255.579,130.345,255.526,165.512Z" transform="translate(-5.742 -6.191)"/><path d="M366.636,347.832c12.266,0,24.533-.03,36.8.009,11.982.038,20.56,8.112,20.511,19.224-.048,11.094-8.617,19.022-20.706,19.038q-36.8.048-73.6,0c-12-.019-20.557-8.109-20.506-19.23.051-11.1,8.618-19,20.7-19.032C342.1,347.808,354.369,347.832,366.636,347.832Z" transform="translate(-5.742 -6.191)"/></svg>