<svg id="Layer_1" data-name="Layer 1" xmlns="http://www.w3.org/2000/svg" viewBox="0 0 489.35 489.411"><title>torrent_setting</title><path d="M234.071,5.6h32.5a14.617,14.617,0,0,0,2.213.8c24.837,4.791,40.643,19.469,46.8,43.9,1.679,6.668,1.283,13.882,1.606,20.856.155,3.331,1.12,5.856,4.321,7.273,3.305,1.463,5.829.2,8.159-2.089,2.839-2.79,5.63-5.639,8.6-8.284,19.94-17.751,50.105-19.416,71.34-3.171a158.135,158.135,0,0,1,22.371,21.441c16.13,18.38,19,39.255,9.78,61.828-3.772,9.236-10.794,15.983-17.444,23.088-1.608,1.717-2.319,5.139-2,7.587.443,3.373,3.494,4.6,6.872,4.584,3.663-.022,7.33-.051,10.99.081,24.848.894,47.612,18.653,52.667,43,2.392,11.516,2.187,23.719,2,35.592-.406,25.139-18.5,47.453-43.047,53.13-7.337,1.7-15.175,1.119-22.7,2.193-2.426.347-5.673,2.171-6.538,4.183-.858,2,.263,5.39,1.52,7.6,1.368,2.405,3.931,4.117,5.907,6.193,22.607,23.759,22.665,57.441.094,81.2-4.276,4.5-8.685,8.888-13.165,13.189-23.953,23-57.954,22.922-81.9-.136-2.065-1.988-3.793-4.532-6.2-5.9-2.075-1.178-5.331-2.045-7.264-1.206s-3.688,3.817-4.12,6.12c-.694,3.7-.145,7.615-.279,11.434-.869,24.865-18.618,47.646-42.912,52.753-11.2,2.354-23.1,2.347-34.633,2-23.148-.7-40.057-11.963-50.58-32.636-4.986-9.8-6.008-20.35-5.61-31.13.144-3.885-.325-7.326-4.586-8.984-4.137-1.61-6.571.933-9.1,3.448-2.373,2.356-4.739,4.726-7.229,6.956-21.281,19.066-54.307,19.245-75.513.178a257.348,257.348,0,0,1-18.918-18.9,56.682,56.682,0,0,1-3.535-70.994c3.664-4.965,8.557-9.014,12.314-13.922,1.375-1.8,2.1-5.279,1.289-7.225s-3.754-3.655-6.062-4.2c-3.018-.717-6.333-.122-9.516-.213-19.62-.561-35.174-8.855-46.71-24.7C10.2,284.756,7.629,275.768,5.6,266.573v-32.5a24.824,24.824,0,0,0,.864-2.691c4.961-24.567,19.578-40.251,43.814-46.3,6.821-1.7,14.241-.867,21.3-1.846,2.418-.335,5.662-2.185,6.518-4.2s-.15-5.539-1.548-7.572c-2.312-3.364-5.7-5.965-8.451-9.055-17.587-19.772-19.449-49.815-3.506-70.938C71.053,82.9,78.991,75.3,86.97,68.041c21.1-19.191,54.191-18.987,75.454.044,3.319,2.97,6.187,6.512,9.767,9.093a8.252,8.252,0,0,0,6.876.974c1.889-.806,3.657-3.49,4.128-5.646.7-3.194.137-6.65.234-9.991.572-19.612,8.878-35.15,24.716-46.681C215.9,10.188,224.89,7.646,234.071,5.6ZM124.057,409.916l.8-.83c2.858-.9,6.091-1.227,8.487-2.819a79.678,79.678,0,0,0,10.488-8.924c13.95-13.283,30.118-17.592,48.316-10.969,16.454,5.988,26.168,18.208,28.895,35.543.81,5.149.427,10.484.618,15.733.4,10.973,8.212,18.828,19.211,19.11,6.369.164,12.75.18,19.117-.009,10.725-.318,18.547-8.154,18.966-18.847.169-4.3-.075-8.616.234-12.9,2.224-30.8,34.872-50.688,62.832-37.65,7.265,3.388,13.43,9.462,19.535,14.933,9.3,8.334,19.947,8.578,28.915-.127,4.115-4,8.208-8.019,12.158-12.175,8.055-8.473,8.063-19.269.1-27.81-2.715-2.911-5.711-5.577-8.272-8.613-11.332-13.435-14.243-28.648-8.134-45.071,5.882-15.815,17.413-25.661,34.163-28.6,5.593-.981,11.416-.679,17.136-.9,10.974-.429,18.843-8.212,19.135-19.2.165-6.209.145-12.428.012-18.639-.243-11.289-8.085-19.152-19.32-19.487-4.139-.123-8.3.084-12.421-.212-30.8-2.213-50.726-34.858-37.678-62.8,3.456-7.4,9.714-13.622,15.244-19.892,7.886-8.942,8.146-19.613-.09-28.23Q396.4,104.139,390,98.027c-8.469-8.062-19.271-8.08-27.81-.13-3.03,2.821-5.836,5.9-8.975,8.585-26.158,22.4-67.049,8.041-73.235-25.848-1.076-5.892-.713-12.048-1.014-18.082-.521-10.45-8.229-18.275-18.685-18.64-6.524-.227-13.067-.206-19.594-.019-10.936.312-18.689,8.259-19.02,19.289-.124,4.139.084,8.3-.212,12.421-2.206,30.807-34.84,50.719-62.8,37.7-7.266-3.385-13.44-9.449-19.543-14.921-9.3-8.34-19.958-8.606-28.915.078q-6.006,5.822-11.827,11.831c-8.5,8.8-8.525,19.681-.143,28.5,2.742,2.886,5.668,5.612,8.254,8.631,22.4,26.159,8.045,67.051-25.842,73.239-5.892,1.076-12.048.714-18.082,1.014-10.451.52-18.278,8.227-18.643,18.682-.228,6.525-.207,13.067-.021,19.594.312,10.937,8.258,18.692,19.286,19.024,4.139.124,8.3-.084,12.421.211,30.8,2.2,50.737,34.852,37.695,62.8-3.454,7.4-9.71,13.622-15.239,19.892-7.9,8.961-8.17,19.61.067,28.224,4.073,4.259,7.974,8.8,12.594,12.385C114.69,405.571,119.575,407.484,124.057,409.916Z" transform="translate(-5.6 -5.6)"/><path d="M250.992,139.034c52.557,1,97.853,38.247,108.019,89.375a110.7,110.7,0,0,1-1.692,51.083c-3.01,11.139-12.58,17.595-22.816,15.243-10.933-2.511-17.036-11.918-14.373-23.549,3.566-15.574,3.87-30.786-1.719-46.007-11.212-30.531-42.933-50.692-74.729-47.216C209.475,181.7,182.931,207.1,178.5,240.342c-5.78,43.352,27,81.969,70.436,82.425,7.683.081,15.463-1.637,23.067-3.171,12.013-2.424,21.686,2.786,24.5,13.789,2.676,10.477-3.458,19.971-15.043,23.284a111,111,0,0,1-139.779-84.121c-12.9-60.743,28.95-121.634,90.364-131.368C238.315,140.186,244.673,139.736,250.992,139.034Z" transform="translate(-5.6 -5.6)"/></svg>