<svg id="Layer_1" data-name="Layer 1" xmlns="http://www.w3.org/2000/svg" viewBox="0 0 503.031 361.973"><title>Finished</title><path d="M507.515,114.431c-2.325,12.559-10.23,21.44-18.945,30.136q-136.488,136.183-272.7,272.64c-12.349,12.362-26.691,17.106-43.361,11.35a42.706,42.706,0,0,1-15.549-9.834Q86.672,349.029,16.82,278.9c-6.493-6.478-10.05-14.346-12.335-22.987v-11.79c.625-2.011,1.244-4.025,1.875-6.035C14.888,210.924,48.4,201.2,70.114,219.6c1.87,1.585,3.613,3.326,5.349,5.06q52.973,52.947,105.9,105.938a37.6,37.6,0,0,1,3.363,4.623c2.281-2.179,3.69-3.47,5.039-4.82Q313.748,206.424,437.726,82.446c15.822-15.818,37.566-17.852,54.193-5.111A39.857,39.857,0,0,1,506.4,99.514c.28,1.067.741,2.086,1.118,3.127Z" transform="translate(-4.485 -69.013)"/></svg>