<svg id="Layer_1" data-name="Layer 1" xmlns="http://www.w3.org/2000/svg" viewBox="0 0 492.779 410.09"><title>Queue</title><path d="M496.389,221.956c-2.677,2.613-4.928,6.015-8.094,7.721-49.484,26.67-99.106,53.081-148.627,79.681-5.175,2.78-9.718,2.839-14.936.1-23.532-12.363-47.222-24.425-70.765-36.768a7.5,7.5,0,0,0-7.922.057c-23.413,12.241-46.964,24.22-70.339,36.531-5.549,2.922-10.232,2.805-15.787-.186-49.354-26.571-98.856-52.865-148.206-79.442-3.164-1.7-5.423-5.089-8.1-7.692v-5.774c3.1-2.613,5.849-5.863,9.342-7.731,17.512-9.368,35.218-18.373,52.853-27.511,1.54-.8,3.055-1.644,5.024-2.707-1.885-1.031-3.264-1.82-4.674-2.55-17.921-9.279-35.914-18.424-53.71-27.935-3.344-1.787-5.91-5.029-8.835-7.6v-5.774c2.708-2.581,5.008-5.917,8.185-7.628,49.473-26.645,99.087-53.029,148.58-79.637,5.215-2.8,9.734-2.854,14.921-.135,23.535,12.335,47.2,24.417,70.747,36.74a7.516,7.516,0,0,0,7.947.045C277.526,71.421,301.207,59.363,324.725,47c5.219-2.744,9.774-2.717,14.94.058,49.5,26.591,99.1,53.005,148.565,79.669,3.172,1.71,5.46,5.062,8.159,7.65v5.774c-3.061,2.651-5.865,5.707-9.248,7.851-4.582,2.9-9.607,5.109-14.442,7.613l-43.527,22.542c1.868,1.023,3.235,1.807,4.634,2.532,17.771,9.213,35.616,18.29,53.265,27.734,3.491,1.868,6.232,5.139,9.318,7.763ZM116.207,178.063a22.323,22.323,0,0,0,1.991,1.383q64.4,33.306,128.878,66.467a8.254,8.254,0,0,0,6.519-.262q63.442-32.549,126.726-65.408c1.1-.57,2.136-1.27,3.371-2.01a19.933,19.933,0,0,0-1.839-1.258q-64.4-33.306-128.874-66.482a7.774,7.774,0,0,0-6.1.115c-11.2,5.521-22.239,11.354-33.328,17.091C181.29,144.39,149.026,161.083,116.207,178.063Z" transform="translate(-3.611 -44.955)"/><path d="M260.353,380.656q0-31.014.008-62.029c.017-11.371,7.022-15.711,17.044-10.57,13.1,6.721,26.21,13.428,39.253,20.26,10.477,5.488,20.823,5.413,31.213-.152q24.342-13.037,48.714-26.02c10.371-5.532,17.723-1.137,17.741,10.643.029,19.394-.087,38.789.063,58.181.047,6.145-2.372,10.13-7.852,13.038Q341.848,418.335,277.3,452.93c-9.589,5.113-16.915.668-16.937-10.245Q260.3,411.671,260.353,380.656Z" transform="translate(-3.611 -44.955)"/><path d="M239.647,380.354c0,20.515-.462,41.046.182,61.541.359,11.441-8.64,15.863-17.807,10.882-42.615-23.155-85.445-45.919-128.291-68.648-5.641-2.992-8.192-6.966-8.131-13.338.184-19.392.042-38.787.075-58.181.02-11.481,7.4-15.958,17.465-10.605,15.971,8.491,31.992,16.892,47.845,25.6,11.2,6.151,22.141,6.253,33.4.26,12.713-6.771,25.549-13.312,38.363-19.891,9.744-5,16.868-.643,16.89,10.352Q239.7,349.339,239.647,380.354Z" transform="translate(-3.611 -44.955)"/></svg>