<svg id="Layer_1" data-name="Layer 1" xmlns="http://www.w3.org/2000/svg" viewBox="0 0 480.048 479.638"><title>All_Download</title><path d="M497.25,389.75c-3.2,2.529-6.036,5.882-9.648,7.465Q375.1,446.5,262.368,495.27a13.7,13.7,0,0,1-9.781.171Q138.776,446.21,25.13,396.594c-5.422-2.355-7.954-5.9-7.928-11.837q.169-38.668,0-77.338c-.019-5,2.072-8.394,6.525-10.323,37.639-16.3,75.357-32.426,112.9-48.95,9.281-4.084,16.672,2.407,15.66,9.775-.661,4.817-3.952,7.133-8.019,8.89q-34.794,15.03-69.558,30.131c-7.134,3.093-14.262,6.2-22.244,9.671,7.433,3.257,14.033,6.168,20.649,9.045q90.111,39.178,180.266,78.254c2.019.873,5,1.2,6.925.369q99.214-42.893,198.29-86.107c.856-.373,1.689-.8,3.183-1.5-1.778-.862-3.06-1.541-4.386-2.118Q414.271,285.8,371.137,267.07c-.858-.373-1.741-.694-2.583-1.1-5.545-2.676-7.808-7.922-5.674-13.111,2.208-5.372,7.727-7.648,13.634-5.169,12.223,5.131,24.349,10.5,36.512,15.77,25.615,11.106,51.27,22.122,76.784,33.453,2.886,1.282,4.979,4.349,7.44,6.588ZM247.161,471.231c0-19.305.067-37.568-.145-55.828-.015-1.277-1.846-3.1-3.251-3.714q-101.419-44.259-202.933-88.3a32.252,32.252,0,0,0-3.66-1.073c0,17.87.125,35.207-.1,52.539-.049,3.846,1.143,5.72,4.675,7.248q94.479,40.868,188.858,81.97C235.868,466.357,241.137,468.626,247.161,471.231Zm20.494-.358c1.3-.445,2.329-.723,3.3-1.145q101.5-44.106,203.008-88.177c2.557-1.108,3.443-2.452,3.424-5.209-.121-17.186-.062-34.374-.076-51.561,0-.72-.142-1.441-.263-2.6-1.366.5-2.37.8-3.327,1.22q-101.5,44.116-203.013,88.2c-2.541,1.1-3.459,2.462-3.439,5.226.118,16.873.054,33.748.072,50.623C267.343,468.491,267.528,469.532,267.655,470.873Z" transform="translate(-17.202 -16.625)"/><path d="M291.937,16.625a4.5,4.5,0,0,0,1.014.843c10.255,4.261,14.2,10.05,14.209,21.2q.039,60.918.012,121.837v6.116h5.4c17.5,0,34.99.064,52.484-.039,5.128-.03,9.276,1.3,11.386,6.367,2.052,4.931-.021,8.7-3.474,12.155Q319.43,238.6,265.923,292.117c-6.082,6.075-11.269,6.046-17.343-.022q-53.374-53.321-106.731-106.661c-3.553-3.546-5.942-7.33-3.795-12.49,2.206-5.3,6.607-6.4,11.861-6.364,18.891.115,37.783.045,57.413.045v-5.65c0-39.519.314-79.042-.184-118.555-.156-12.4,3.649-21.15,15.418-25.795ZM256.705,270.106,340.3,186.513c.926.17.623.066.321.066-13.593-.017-27.187,0-40.78-.04-9.333-.024-12.583-3.342-12.585-12.8q-.011-65.622,0-131.244V36.9h-60v5.953q0,65.622,0,131.244c0,9.041-3.384,12.4-12.485,12.44-6.875.031-13.75.007-20.624.007H173.174Z" transform="translate(-17.202 -16.625)"/></svg>