<svg id="Layer_1" data-name="Layer 1" xmlns="http://www.w3.org/2000/svg" viewBox="0 0 489.329 483.325"><title>Audio-1</title><path d="M494.664,154.409c-9.4,18.756-33.885,24.6-51.177,12.21-12.14-8.7-12.216-23.775.01-32.375,9.449-6.646,19.966-7.663,31-5.04,1.818.432,3.621.931,5.666,1.461V84.653c-1.713.625-3.18,1.117-4.614,1.689-17.706,7.064-35.368,14.241-53.143,21.124-3.411,1.32-4.392,3.038-4.361,6.594.18,20.527.088,41.056.088,61.584,0,15.393-6.364,23.53-21.462,26.837-9.452,2.07-18.731,1.268-27.262-3.655-6.836-3.945-11.57-9.487-11.5-17.927.066-8.421,4.818-13.95,11.721-17.788,8.886-4.94,18.39-5.687,28.2-3.286,1.813.445,3.619.924,5.969,1.526v-7.942c0-15.754.092-31.509-.055-47.262-.043-4.637,1.814-7.359,6.093-9.052,24.218-9.581,48.383-19.3,72.574-28.948,6.307-2.516,7.909-2.077,12.266,3.131ZM387.727,190.134c4.61-1.68,9.107-2.721,12.97-4.891,4.006-2.25,3.813-5.469.314-8.394-6.249-5.222-20.191-5.169-26.3.1-3.284,2.832-3.536,5.915.209,8.106C378.74,187.29,383.214,188.4,387.727,190.134Zm77-30.516c4.692-1.9,9.235-3.217,13.2-5.519,3.21-1.862,2.962-4.871.127-7.493-6.112-5.654-20.912-5.718-27.03-.055-3.018,2.793-3.239,5.719.359,7.786C455.362,156.619,459.971,157.8,464.729,159.618Z" transform="translate(-5.336 -8.338)"/><path d="M247.357,131.481c4.819-4.264,9.123-7.765,12.991-11.694,1.063-1.08,1.22-3.464,1.121-5.211-.768-13.436-.407-26.751,3.836-39.681C269.988,60.624,277.826,48.771,291.763,42c11.481-5.577,21.862-3.413,28.634,5.624,4.645,6.2,5.254,13.222,3.651,20.475a51.931,51.931,0,0,1-14.943,26.741c-15.225,14.47-31,28.365-46.64,42.4-24.1,21.622-47.759,43.741-65.477,71.119-6.948,10.737-11.975,22.717-17.872,34.133-.218.423-.393.87-.577,1.311-1.985,4.752-5.66,6.675-9.732,5.09-3.779-1.471-5.324-5.393-3.706-9.978,5.709-16.182,14.1-30.941,24.07-44.834,12.581-17.528,27.15-33.309,42.781-48.12a6.989,6.989,0,0,0,2.342-7.475c-5.826-27.809-6.089-55.41,5.306-82.024,10.048-23.469,26.624-40.275,52.033-46.628,30.852-7.713,61.816,15.429,63.619,47.178,1.384,24.36-9.257,43.979-25.535,60.605-12.673,12.942-26.687,24.582-40.272,36.613-2.392,2.119-3.06,3.693-1.817,6.776q7.752,19.239,14.933,38.706c1.283,3.487,2.972,4.777,6.792,4.989,36.426,2.026,61.428,20.862,77.171,53.066.28.571.577,1.137.806,1.729,1.713,4.426.3,8.423-3.533,10.047-3.7,1.566-7.5.168-9.441-4.041-4.642-10.086-10.58-19.219-18.646-26.9-29.641-28.25-81.534-25.7-106.911,5.266-10.339,12.619-14.49,27.4-14.782,43.424-.1,5.321,3.225,8.885,7.85,9.063s8.18-3.212,8.328-8.491c.942-33.7,22.2-47.137,41.3-51.175,27.724-5.86,52.2,5.919,65.533,30.261,15.716,28.693,8.11,82.907-38.258,98.383-39.22,13.091-75.537,5.534-105.52-22.573C186.324,317.509,182.986,285.087,193.5,251c6.878-22.315,20.618-40.753,35.754-58.144,19.931-22.9,43.051-42.453,65.731-62.479,9.537-8.422,19.152-16.89,27.667-26.3C333.64,91.925,341.2,77.782,340.991,60.7c-.325-26.715-25.11-44.351-50.4-35.755C274.55,30.4,263.214,41.482,255.539,56.3,243.272,79.971,243.1,105.025,247.357,131.481Zm3.405,59.164c-16.31,17.154-30.692,34.643-40.215,55.68-8.312,18.362-10.442,37.351-4.945,56.759,7.864,27.768,28.246,42.382,54.626,50.114,11.655,3.416,23.533,4.92,36.04,2.57a468.687,468.687,0,0,0-20.216-96.931c-2.873,4.092-5.991,6.976-7.134,10.5a94.093,94.093,0,0,0-4.248,19.848c-1.177,12.211-10.5,21.576-22.489,21.581-12.124,0-22.458-9.628-22.451-22.027.016-29.661,11.18-53.775,36.547-70.393,1.417-.928,2.825-1.867,4.287-2.834C257.281,207.185,254.145,199.229,250.762,190.645Zm38.158,61.144a499.538,499.538,0,0,1,21.641,101.746c4.908-2.324,9.4-4.253,13.647-6.616.935-.52,1.558-2.652,1.4-3.923-1.184-9.3-2.012-18.711-4.07-27.833-4.684-20.755-9.961-41.378-15.185-62.007-.344-1.359-2.333-3.339-3.464-3.28C298.359,250.116,293.87,251.047,288.92,251.789Zm50.35,80.583c8.021-7.38,14.154-34.192,8.625-49.736-4.743-13.337-12.573-23.67-26.146-30.167,3.539,14.034,7.16,27.034,10.041,40.2C334.668,305.812,336.805,319.12,339.27,332.372ZM275.592,106.765c5.465-4.893,9.956-8.829,14.351-12.87,7.042-6.472,13.935-13.148,17.675-22.177a32.249,32.249,0,0,0,2.6-10.947c.195-5.637-4.279-8.523-9.642-6.809-6.655,2.126-11.545,6.564-15.33,12.249C277.352,78.068,275.339,91.386,275.592,106.765Zm13.924,98.793c-4.94-12.669-9.806-25.149-14.827-38.023-3.9,3.608-7.47,6.749-10.809,10.122-.822.831-1.548,2.661-1.194,3.614,3.525,9.472,7.285,18.856,11.015,28.357Z" transform="translate(-5.336 -8.338)"/><path d="M298.979,401.036A132.842,132.842,0,0,1,228.5,389.415c-45.319-20.623-69.073-55.939-70.865-105.833a22.069,22.069,0,0,1,.011-2.864c.426-4.517,3.267-7.251,7.369-7.147,4,.1,6.4,2.591,6.9,7.047.993,8.841,1.214,17.863,3.185,26.482,7.234,31.632,26.632,53.788,55.563,67.512,34.494,16.362,69.717,18.311,104.5,1.328,27.794-13.573,41.465-37.431,44.85-67.633.443-3.949.535-7.937.8-11.907.332-4.91,3.053-7.664,7.4-7.508,4.029.145,6.971,3.063,6.873,7.613-.808,37.359-14.174,68.2-46.89,88.617-3.482,2.173-4.639,4.268-4.425,8.253.822,15.26,1.46,30.53-2,45.636-7.576,33.082-34.016,53.831-67.2,52.6A67.071,67.071,0,0,1,210.2,433.784a58.582,58.582,0,0,1-.386-14.732c1.262-11.306,10.99-19.313,22.49-19.16a22.187,22.187,0,0,1,21.751,19.564c.252,2.053.371,4.122.562,6.183,1.357,14.579,14.318,23.806,28.551,20.394,7.256-1.739,11.4-6.661,13.664-13.361C300.275,422.5,299.435,412.022,298.979,401.036Zm30.476-6.569c-4.186,1.206-7.924,2.648-11.8,3.291-3.445.574-4.194,2.07-4.251,5.393-.161,9.359.117,18.874-1.488,28.028-3.324,18.958-16.371,29.855-34.06,29.9-18.353.044-33.243-11.884-36.952-29.775-.675-3.254-.612-6.655-1.119-9.953-.7-4.537-3.867-7.186-8.145-7.086a7.739,7.739,0,0,0-7.773,7.5,50.564,50.564,0,0,0,.342,8.091c2.163,24.667,21.6,43.741,48.071,47.227,23.386,3.079,45.321-10.951,53.453-34.173C331.247,427.173,330.222,410.984,329.455,394.467Z" transform="translate(-5.336 -8.338)"/><path d="M127.637,345.018c-2.924,1.164-5.39,2.144-7.853,3.129-16.673,6.666-33.309,13.426-50.049,19.917-3.2,1.241-4.142,2.868-4.118,6.209.154,21.65-.071,43.3.148,64.952.094,9.347-3.96,16.008-11.954,20.1-13.544,6.93-27.137,6.722-39.708-2.165-11.858-8.384-11.6-23.274.241-31.728,9.878-7.054,20.9-7.819,32.384-4.9,1.366.347,2.7.826,4.624,1.422v-5.42c0-16.557.083-33.115-.05-49.67-.039-4.8,1.882-7.652,6.353-9.42,24.383-9.64,48.7-19.458,73.059-29.148,7.234-2.877,11.509.039,11.524,7.828.045,24.516-.05,49.033.053,73.55.032,7.739-3.407,13.414-9.538,17.656-11.4,7.884-29.19,7.982-40.7.329-13.543-9.01-13.336-25.515.553-34.034,9.657-5.923,20.085-6.483,30.848-3.7,1.351.349,2.686.761,4.179,1.186Zm-15.172,56.538c-4.789,1.83-9.393,3.008-13.372,5.282-3.627,2.072-3.428,4.962-.414,7.767,6.126,5.7,20.851,5.7,27.014.022,2.792-2.573,3.162-5.611-.088-7.508C121.645,404.806,117.116,403.468,112.465,401.556ZM35.64,432.2c-4.689,1.83-9.289,3.045-13.258,5.347-3.542,2.055-3.27,5.022-.2,7.789,6.154,5.542,20.369,5.61,26.674.127,3.3-2.865,3.5-5.9-.3-8.106C44.721,435.135,40.255,433.987,35.64,432.2Z" transform="translate(-5.336 -8.338)"/><path d="M158.305,115.317V69.275c-4.022,1.606-7.681,3.068-11.341,4.528-15.65,6.24-31.273,12.549-46.976,18.653-2.833,1.1-3.763,2.556-3.743,5.578.133,20.856.07,41.714.07,62.571,0,15.187-6.273,23.239-21.17,26.51-10.14,2.227-19.994,1.258-28.918-4.527-13.544-8.779-13.619-24.939-.054-33.726,9.181-5.948,19.3-6.883,29.821-4.4,1.827.43,3.632.952,5.975,1.571V125.694c0-11.463.114-22.928-.052-34.389-.072-5,1.977-7.859,6.654-9.7C112.679,72.118,136.7,62.4,160.759,52.8c8.05-3.213,12.116-.407,12.127,8.381q.045,34.391.01,68.781c0,15.369-6.378,23.414-21.623,26.614-10.345,2.171-20.318,1-29.242-5.147-12.322-8.481-12.591-23.632-.43-32.357,9.534-6.839,20.23-7.877,31.435-5.124C154.7,114.356,156.348,114.807,158.305,115.317Zm-15.339,29.045c4.626-1.927,9.289-3.37,13.41-5.75,3.052-1.763,2.685-4.731.111-7.221-5.959-5.768-20.943-5.87-27.144-.16-3.037,2.8-3.227,5.7.41,7.816C133.6,141.291,138.079,142.458,142.966,144.362ZM66.008,174.945c4.76-1.83,9.363-3.015,13.335-5.3,3.584-2.062,3.359-5.019.342-7.786-6.181-5.669-20.934-5.586-27.019.082-2.828,2.634-3.081,5.611.15,7.475C56.79,171.71,61.32,173.038,66.008,174.945Z" transform="translate(-5.336 -8.338)"/></svg>