<svg id="Layer_1" data-name="Layer 1" xmlns="http://www.w3.org/2000/svg" viewBox="0 0 483.86 488.763"><title>Compressed-1</title><path d="M242.568,494.382c-3.982-.924-7.987-1.763-11.944-2.785-42.083-10.867-68.995-52.925-61.235-95.738q12.154-67.059,24.376-134.106a63.292,63.292,0,0,1,19.694-36.168,6.845,6.845,0,0,0,2.2-4.35c.139-23.541.1-47.082.089-70.624a5.2,5.2,0,0,0-.493-1.261,34.49,34.49,0,0,0-14.394,10.455c-10.5,12.781-21.268,25.367-31.138,38.621-10.659,14.313-11.358,30-3.179,45.811,4.011,7.753,8.737,15.135,13.118,22.7,3.171,5.472,2.661,9.813-1.368,12.023-4,2.193-7.789.62-10.848-4.589-4.264-7.263-8.6-14.488-12.693-21.845-10.106-18.146-10.518-36.625-1.257-55.188,1.274-2.553,1.025-4.168-.467-6.4C123.167,146.21,83.54,112.922,34.222,91.86,15.03,83.664,9.328,70.887,18.055,53.234c1.4-2.839,2.211-6.012,3.857-8.684,4.446-7.223,11.123-10.876,19.6-10.332,3.308.213,4.855-.832,6.108-3.666,1.795-4.063,4.178-7.869,5.919-11.951,2.537-5.952,6.345-10.51,12.428-12.983H73.6c4.651,2.366,9.312,4.709,13.949,7.1,10.461,5.4,13.071,13.563,7.725,24.169-2.914,5.78-5.866,11.542-8.935,17.577L98.2,61.733c4.257-6.255,8.147-12.236,12.31-18.023,5.353-7.442,14.124-9.05,21.892-4.153,3.361,2.118,6.624,4.394,9.889,6.66,9.546,6.626,11.128,14.92,4.676,24.57-3.871,5.791-7.8,11.541-11.885,17.57l12.005,10.355c6.17-6.287,11.955-12.407,17.989-18.27,6.643-6.456,15.432-6.474,22.249-.2,3.157,2.907,6.144,6,9.137,9.085,7.379,7.6,7.349,16.435-.187,24.026-5.822,5.865-11.793,11.582-17.848,17.511l13.7,17.179A57.656,57.656,0,0,1,218.6,132.928a7.112,7.112,0,0,0,3.427-2.908c17.187-24.821,50.612-24.8,67.835.035.842,1.213,2.1,2.611,3.419,2.943a58.214,58.214,0,0,1,26.482,15.046l13.683-17.2c-6.3-6.165-12.537-12.065-18.532-18.2-6.644-6.806-6.616-15.719-.156-22.643,1.844-1.976,3.809-3.84,5.722-5.752C332.184,72.557,339,72.522,350.554,84.13c4.78,4.8,9.519,9.647,14.343,14.539l11.471-9.987c-.074-.558-.045-.741-.121-.855-4.046-6.085-8.168-12.122-12.14-18.255-5.341-8.248-3.662-16.918,4.29-22.559,2.723-1.932,5.522-3.755,8.289-5.624,11.132-7.52,19.07-6.008,26.591,5.065,3.439,5.063,6.874,10.13,10.375,15.29l11.874-7.281c-3.074-6.044-6.025-11.806-8.941-17.587-5.363-10.633-2.76-18.766,7.728-24.157,4.641-2.385,9.3-4.735,13.951-7.1H445.9c6.071,2.487,9.975,6.994,12.414,13,1.013,2.493,2.666,4.735,3.593,7.251,2.134,5.789,5.044,8.859,12.27,8.7,8.165-.177,14.024,5.386,17.368,12.929,1.8,4.061,3.34,8.245,4.836,12.432,4.3,12.032-.54,23.733-12.359,28.8a297.706,297.706,0,0,0-54.259,29.692A270.352,270.352,0,0,0,358.8,190.992c-1.505,2.276-1.617,3.9-.374,6.41,9.135,18.406,8.812,36.755-1.11,54.788-4.135,7.517-8.538,14.89-12.907,22.276-2.852,4.821-6.79,6.19-10.647,3.9-3.84-2.279-4.453-6.26-1.6-11.242,4.186-7.31,8.646-14.469,12.633-21.884,9.028-16.789,7.987-33.114-3.646-48.231q-14.546-18.9-30.161-36.967c-3.8-4.405-9-7.6-13.564-11.355l-1.139,1.08c-.068,1.053-.2,2.106-.2,3.159,0,22.274-.03,44.547.106,66.82.011,1.841.622,4.271,1.876,5.419,11.782,10.781,18.009,24.275,20.762,39.8q11.486,64.77,23.337,129.476c8.8,47.989-22.3,91.667-70.721,99.105a10.37,10.37,0,0,0-2.146.836ZM297.82,245.763l-1.554.366c-3.515,25.49-22.374,36.317-38.377,37.078a39.271,39.271,0,0,1-28.5-10.023c-8.228-7.165-12.4-16.475-14.485-27.349-2.71,5.479-5.5,10.914-6.582,16.669-8.472,45.271-16.994,90.538-24.721,135.939-4.8,28.205,5.032,51.374,27.867,68.579,17.965,13.536,38.746,14.989,60.075,12.022,35.675-4.963,63.169-41.3,57.223-76.7-7.787-46.356-16.468-92.563-25.042-138.783C302.6,257.47,299.829,251.687,297.82,245.763Zm-67.75-48.689c0,14.952-.1,29.905.076,44.855a31.946,31.946,0,0,0,1.689,10.242c4.08,11.384,16.1,18.422,27.593,16.551,13-2.118,22.242-12.291,22.3-25.235.144-30.7.057-61.4.026-92.1a23.618,23.618,0,0,0-.551-5.2,25.906,25.906,0,0,0-28.315-20.232c-12.861,1.359-22.663,12.308-22.78,25.781C229.979,166.85,230.08,181.962,230.07,197.074ZM347.139,181.5c.769-.462,1.1-.563,1.279-.788.589-.749,1.132-1.535,1.673-2.32a283.566,283.566,0,0,1,76.455-75.079,300.534,300.534,0,0,1,50.3-27.022c6.691-2.834,8.036-6.067,5.564-12.763-.934-2.532-1.929-5.042-2.907-7.557-3.008-7.731-6.456-9.187-13.926-5.88a340.586,340.586,0,0,0-114.383,82.581c-7.785,8.507-14.825,17.7-22.181,26.537ZM182.578,159.538a325.22,325.22,0,0,0-50.668-54.945,342.123,342.123,0,0,0-86.166-54.8c-3.373-1.489-7.831-2.867-9.634.372-3.368,6.052-5.513,12.865-7.439,19.571-.385,1.341,2.287,3.823,3.923,5.387,1.082,1.034,2.823,1.388,4.283,2.012,44.7,19.125,82.5,47.4,113.01,85.309,4.948,6.148,9.525,12.6,14.6,19.344Zm-13.034-39.577c5.355-5.38,10.995-10.91,16.41-16.653a3.99,3.99,0,0,0,.2-3.84c-2.769-3.623-5.9-6.968-8.652-10.127l-19.646,19.71Zm172.179-.471,11.7-10.538L334.51,90.066c-2.647,2.771-5.855,5.838-8.637,9.253a4.308,4.308,0,0,0,.232,4.164C331.373,109.166,336.9,114.606,341.723,119.49Zm-204.758-59.5c-4.237-2.9-8.055-5.654-12.05-8.12a3.264,3.264,0,0,0-3.09.747c-3.933,5.491-7.659,11.13-11.614,16.968l13.6,9.864Zm264.667,9.616C397.7,63.77,394.164,58.35,390.4,53.1c-.6-.839-2.669-1.655-3.322-1.261-4.125,2.489-8.043,5.322-12.189,8.151l13.186,19.468ZM69.232,19.5,58.817,39.954l15.006,7.439c3.13-6.125,6.2-11.822,8.882-17.7.436-.956-.442-3.364-1.412-3.957C77.674,23.523,73.765,21.784,69.232,19.5ZM453.057,39.94,442.608,19.549c-4.445,2.231-8.47,4.058-12.254,6.294-.9.53-1.724,2.777-1.32,3.646,2.782,5.978,5.9,11.8,9.043,17.932Z" transform="translate(-14.07 -5.618)"/><path d="M209.887,405.912a46.043,46.043,0,1,1,46.124,46.1A45.982,45.982,0,0,1,209.887,405.912Zm77.779-.071a31.735,31.735,0,1,0-31.738,31.864A31.608,31.608,0,0,0,287.666,405.841Z" transform="translate(-14.07 -5.618)"/></svg>