<svg id="Layer_1" data-name="Layer 1" xmlns="http://www.w3.org/2000/svg" viewBox="0 0 500.003 454.532"><title>General</title><path d="M302.959,369.736h-6.122c-28.232,0-56.465.068-84.7-.032-13.546-.048-23.473-8.868-24.28-21.186-.876-13.38,9.332-24.255,23.184-24.3,32.848-.1,65.7-.034,98.546-.035h6.166c12.611-45.416,25.16-90.613,37.87-136.387h-7.106c-47.941,0-95.883.082-143.823-.123-4.9-.021-6.944,1.214-8.294,6.113q-37.221,135.08-74.821,270.054c-3.886,14-14.162,21.25-27,19.029-13.278-2.3-21.093-15.6-17.232-29.687,6.328-23.076,12.8-46.113,19.208-69.167,1.23-4.425,2.435-8.858,3.843-13.981-2.174-.112-4-.286-5.821-.288-20.774-.02-41.55.092-62.324-.048C13.978,369.591,3.2,356.628,6.637,341.612c2.349-10.277,11.378-17.363,22.6-17.4,25.568-.081,51.137-.027,76.706-.028h5.228L149.051,187.8c-2.641,0-4.542,0-6.444,0-22.9,0-45.812.1-68.716-.063a22.543,22.543,0,0,1-22.139-18.678c-1.912-9.842,3.385-20.514,12.884-24.465a33.669,33.669,0,0,1,12.415-2.246q39.682-.291,79.368.01c4.166.034,5.785-1.339,6.836-5.2,8.1-29.759,16.385-59.465,24.62-89.186,3.117-11.249,10.1-17.984,19.683-19.013,17.159-1.842,29.161,12.779,24.46,29.992-5.6,20.518-11.381,40.988-17.072,61.482-1.94,6.983-3.846,13.976-5.924,21.532,2.082.11,3.767.275,5.451.276,48.83.014,97.659-.046,146.488.115,4.128.014,5.806-1.259,6.866-5.161q12.2-44.9,24.754-89.7c3.721-13.383,13.81-20.364,26.43-18.44,13.523,2.061,21.53,15.507,17.6,29.864C431,79.428,425.23,99.9,419.538,120.394c-1.94,6.984-3.85,13.977-6.018,21.853h6.03c20.775,0,41.55-.108,62.324.038,16.228.113,26.968,13.182,23.463,28.2-2.384,10.221-11.452,17.249-22.714,17.284-25.214.078-50.427.026-75.641.026-1.936,0-3.871,0-6.156,0L362.955,324.185h33.214c13.5,0,26.99-.051,40.484.015,13.736.068,23.838,9.659,23.913,22.568s-9.866,22.813-23.631,22.908q-40.216.277-80.434-.052c-4.652-.04-6.666,1.09-7.949,5.855-8.2,30.465-16.708,60.848-25.316,91.2-2.757,9.724-10.66,15.881-20.02,16.434-9.854.581-18.479-4.425-22.417-13.107-2.533-5.585-2.467-11.27-.816-17.141q10.792-38.392,21.384-76.841C301.882,374.168,302.315,372.289,302.959,369.736Z" transform="translate(-5.998 -28.734)"/></svg>