<svg id="Layer_1" data-name="Layer 1" xmlns="http://www.w3.org/2000/svg" viewBox="0 0 505.221 428.637"><title>Image</title><path d="M3.389,181.992V170.151a8.388,8.388,0,0,0,.84-1.71q5.542-23.452,28.7-30.087c2.625-.757,5.248-1.522,7.725-2.241.127-.925.239-1.407.254-1.892.855-27.4,15.439-41.584,42.793-41.586q57.477,0,114.956-.036a33.269,33.269,0,0,0,8.291-.842c27.636-7.222,55.23-14.608,82.856-21.874,34.611-9.1,69.162-18.453,103.894-27.075,19.931-4.947,39.619,6.856,45.714,26.436,2.292,7.362,3.889,14.938,6.134,22.316a8.394,8.394,0,0,0,3.7,4.541c14.462,7.638,21.757,19.542,21.815,35.846.064,17.761-.034,35.523.066,53.284a35.68,35.68,0,0,0,1.1,8.733q10.378,39.8,20.968,79.536c5.095,19.176,10.276,38.33,15.419,57.493v11.841a8.171,8.171,0,0,0-.85,1.7q-5.63,23.754-29.144,30.25c-2.478.69-4.937,1.447-7.268,2.132-.125.891-.237,1.372-.253,1.857-.867,27.383-15.476,41.577-42.814,41.579q-58.958,0-117.913.056a39.492,39.492,0,0,0-9.705,1.262c-27.333,7.078-54.628,14.3-81.942,21.452-33.35,8.732-66.632,17.739-100.088,26.045-20.368,5.056-40.224-6.972-46.212-27.05-2.064-6.92-3.672-13.976-5.788-20.879a7.63,7.63,0,0,0-3.4-4.181c-14.99-7.61-22.312-19.785-22.307-36.5.006-17.6.051-35.194-.049-52.79a35.736,35.736,0,0,0-1.1-8.733Q29.4,279.237,18.808,239.5C13.713,220.317,8.532,201.16,3.389,181.992ZM245.657,319.647c1.017-1.141,1.668-1.867,2.314-2.6,10.674-12.071,21.287-24.195,32.045-36.19,5.182-5.778,10.83-5.745,16.127-.188,1.814,1.9,3.513,3.916,5.254,5.888q49.128,55.653,98.342,111.23a9.643,9.643,0,0,0,6.205,2.811c8.044.326,16.109.162,24.166.123,14.183-.068,21.231-7.114,21.232-21.22q.009-122.832,0-245.665c0-14.518-6.925-21.535-21.361-21.574-14.8-.041-29.6.025-44.4-.027-7.318-.025-11.619-3.751-11.579-9.819.039-6.034,4.359-9.694,11.707-9.766,7.07-.069,14.141-.017,21.212-.017,5.872,0,11.743,0,18.29,0-1.261-4.861-2.321-8.948-3.383-13.035C417.816,64.147,408.9,58.887,393.6,62.914q-46.431,12.224-92.865,24.432c-5.129,1.351-10.236,2.788-15.352,4.185a8.561,8.561,0,0,0,4.982,1.1c9.4.038,14.089,3.394,13.982,10.006-.1,6.488-4.576,9.61-13.8,9.611q-104.088,0-208.175.009c-14.847,0-21.715,6.906-21.716,21.707q0,122.339,0,244.679c0,1.644-.056,3.3.08,4.93a18.473,18.473,0,0,0,7.276,13.453c3.351,2.656,5.6,2.99,8.554-1.256C109.657,348.124,143.2,300.79,176.09,253c8.022-11.657,15.777-11.1,23.21.081C214.12,275.377,229.853,297.067,245.657,319.647Zm-44.916,80.729H375.552l-87.391-99.009Zm-103.706.355h5.735c22.181,0,44.362-.069,66.543.073a9.516,9.516,0,0,0,8.01-3.586c17.193-19.665,34.531-39.2,51.811-58.793,1.05-1.19,1.993-2.473,2.988-3.715-14.9-21.282-29.541-42.188-44.465-63.5ZM87.081,420.6c1.158,4.454,2.141,8.246,3.129,12.036,3.925,15.054,13.012,20.44,27.906,16.537q45.2-11.845,90.388-23.7c4.928-1.295,9.824-2.707,14.735-4.065l-.176-.8Zm-47.1-177.962.617-.1V157.11c-11.5,1.656-19.644,11.428-17.154,21.884C28.526,200.312,34.425,221.433,39.986,242.636Zm432.02,27.741-.626.055v85.432c11.65-1.613,19.7-11.66,17.1-22.332C483.34,312.4,477.537,291.42,472.006,270.377Z" transform="translate(-3.389 -41.682)"/><path d="M404.076,191.66c-.129,28.278-23.658,51.539-51.72,51.132a51.493,51.493,0,0,1-51.041-51.8c.128-28.27,23.6-51.487,51.709-51.147A51.538,51.538,0,0,1,404.076,191.66Zm-83.034-.742a31.656,31.656,0,1,0,31.932-31.358A31.779,31.779,0,0,0,321.042,190.918Z" transform="translate(-3.389 -41.682)"/><path d="M329.591,101.8a9.744,9.744,0,1,1,8.932,10.378A9.7,9.7,0,0,1,329.591,101.8Z" transform="translate(-3.389 -41.682)"/></svg>