<svg id="Layer_1" data-name="Layer 1" xmlns="http://www.w3.org/2000/svg" viewBox="0 0 504.008 504.026"><title>Program-1</title><path d="M4.015,256.005q0-96.681.027-193.363c.036-28.227,17.5-50.753,44.208-57a69.226,69.226,0,0,1,15.6-1.585q192-.126,384.009-.055c35.711.007,60.118,24.35,60.125,59.972q.041,192,0,384.009c-.007,35.624-24.417,60-60.1,60.008q-192,.041-384.009,0C28.573,507.98,4.05,483.5,4.027,448.281Q3.961,352.143,4.015,256.005ZM25.3,103.442c-.1,2.327-.25,4.1-.25,5.866q-.016,169.2,0,338.4c.007,24.507,14.719,39.245,39.218,39.252q191.743.05,383.488,0c24.48-.006,39.19-14.752,39.2-39.272q.051-169.2,0-338.4c0-1.9-.2-3.808-.307-5.845ZM24.506,82.02H487.517c-.641-10.294-.04-20.593-2.16-30.3-3.794-17.364-18.194-26.7-38.425-26.7Q255.988,25,65.044,25.027c-2.35,0-4.71.077-7.05.287C42.607,26.692,29.7,36.717,26.618,51.746,24.618,61.491,25.132,71.752,24.506,82.02Z" transform="translate(-3.996 -3.987)"/><path d="M114.621,170.371c-.261,5.91-.149,11.55-.824,17.093-2.15,17.656-17.652,30.268-35.732,29.378a33.926,33.926,0,0,1-31.811-32.507q-.378-13.828.008-27.674c.5-17.037,14.665-31.407,31.442-32.225,18.388-.9,33.822,11.344,36.039,28.913C114.465,159.068,114.361,164.89,114.621,170.371Zm-21.445.351h-.018c0-4.333.187-8.676-.043-13A12.892,12.892,0,0,0,80.58,145.244c-6.651-.219-12.927,4.77-13.322,11.678a254.524,254.524,0,0,0-.043,27.065A12.885,12.885,0,0,0,80.3,195.966a13.044,13.044,0,0,0,12.837-12.787C93.337,179.036,93.176,174.875,93.176,170.722Z" transform="translate(-3.996 -3.987)"/><path d="M46.185,419.424c.007-4.342-.094-8.686.025-13.024.48-17.616,14.6-32.211,31.87-33.028,18.343-.867,34.053,11.812,35.681,29.931a183.233,183.233,0,0,1,.027,32.489c-1.639,18.42-17.292,30.931-36.1,29.99-17.187-.861-31.08-15.535-31.493-33.333C46.093,428.109,46.179,423.766,46.185,419.424Zm46.989-.01c0-4.153.165-8.314-.037-12.457a13.013,13.013,0,0,0-12.37-12.684c-6.614-.357-13.053,4.581-13.471,11.5a236.2,236.2,0,0,0-.018,27.6c.391,6.9,6.755,11.876,13.382,11.605a12.919,12.919,0,0,0,12.46-12.564C93.34,428.09,93.16,423.748,93.174,419.414Z" transform="translate(-3.996 -3.987)"/><path d="M466.329,170.621c-.507,6.828-.2,13.839-1.682,20.45C461,207.38,446.011,217.9,429.237,216.825c-15.9-1.021-29.6-13.521-30.971-29.723a187.9,187.9,0,0,1,.085-33.56c1.691-17.712,17.387-29.936,35.763-29.113,17.034.764,31.112,15.209,31.666,32.592.144,4.518.022,9.044.022,13.566Zm-47.5.117c0,4.153-.158,8.313.035,12.456a13.016,13.016,0,0,0,12.31,12.74c6.588.4,13.08-4.513,13.52-11.429a232.256,232.256,0,0,0,.046-27.6c-.387-6.934-6.665-11.892-13.322-11.663-7,.241-12.271,5.608-12.573,13.035C418.671,162.426,418.809,166.585,418.824,170.738Z" transform="translate(-3.996 -3.987)"/><path d="M201.967,295.066c0,5.062.343,10.151-.061,15.18a33.925,33.925,0,0,1-67.732-1.808c-.254-9.036-.269-18.093.025-27.127a33.914,33.914,0,0,1,67.642-1.965c.452,5.2.07,10.478.07,15.72Zm-20.872.042c0-4.332.195-8.673-.045-12.991a12.611,12.611,0,0,0-12.687-12.205c-6.918-.118-12.859,4.688-13.2,11.668-.442,9-.442,18.056,0,27.057.342,6.968,6.3,11.787,13.2,11.673A12.622,12.622,0,0,0,181.05,308.1C181.289,303.781,181.094,299.439,181.1,295.108Z" transform="translate(-3.996 -3.987)"/><path d="M466.332,419.691c-.511,6.828-.206,13.841-1.695,20.449-3.733,16.573-18.591,26.783-35.981,25.612-15.516-1.046-29.029-13.594-30.4-29.651a188.061,188.061,0,0,1,.018-33.026c1.652-18.036,17.584-30.695,35.883-29.695,17.281.945,31.195,15.53,31.651,33.253.112,4.339.017,8.683.017,13.024Zm-47.495-.282c0,4.334-.178,8.677.04,13a12.916,12.916,0,0,0,12.469,12.568c6.645.27,12.971-4.67,13.374-11.6a232.112,232.112,0,0,0-.017-27.6c-.425-6.926-6.857-11.855-13.467-11.5a13.034,13.034,0,0,0-12.374,12.681C418.663,411.1,418.826,415.256,418.837,419.409Z" transform="translate(-3.996 -3.987)"/><path d="M378.487,295.39c-.588,7-.313,14.205-1.937,20.955-3.787,15.746-19.365,26.486-34.9,25.017-17.3-1.635-30.43-14.186-31.485-31.048a235.281,235.281,0,0,1,.05-30.9c1.211-17.448,16.653-30.972,34.085-30.69a33.98,33.98,0,0,1,33.536,32.514c.193,4.694.029,9.4.029,14.106Zm-21.468-.078h.017c0-4.151.151-8.309-.033-12.452-.34-7.669-5.834-12.98-13.151-12.945-7.386.034-12.772,5.315-12.938,13.079q-.26,12.177.008,24.363c.171,7.5,5.416,12.74,12.523,12.946a12.866,12.866,0,0,0,13.532-12.541C357.214,303.625,357.019,299.462,357.019,295.312Z" transform="translate(-3.996 -3.987)"/><path d="M289.889,170.746c0,4.883.253,9.781-.045,14.645a33.8,33.8,0,0,1-33.867,31.494c-17.828-.008-32.916-13.849-33.783-31.544-.478-9.743-.472-19.545-.017-29.289.844-18.047,15.893-31.786,34.121-31.68A33.6,33.6,0,0,1,289.866,156.1c.275,4.867.042,9.763.042,14.646Zm-20.816-.06c0-4.154.141-8.313-.031-12.459-.311-7.511-6.074-13.085-13.206-12.985A13,13,0,0,0,243,158.029c-.23,8.3-.218,16.615-.014,24.916a13.025,13.025,0,0,0,26.048.2C269.224,179,269.066,174.839,269.073,170.686Z" transform="translate(-3.996 -3.987)"/><path d="M222.07,419.679c0-4.7-.207-9.416.034-14.106a33.922,33.922,0,0,1,67.768.161c.4,9.387.4,18.821-.028,28.206-.832,18.135-15.724,31.933-33.922,31.908a33.653,33.653,0,0,1-33.812-32.064C221.864,429.094,222.073,424.381,222.07,419.679Zm47,.013c0-4.153.144-8.313-.031-12.459-.316-7.49-6.151-13.113-13.243-12.978a13.053,13.053,0,0,0-12.8,12.847q-.333,12.452-.006,24.917a13.022,13.022,0,0,0,26.043.131C269.22,428.005,269.065,423.845,269.07,419.692Z" transform="translate(-3.996 -3.987)"/><path d="M266.588,320.4c4.719,0,8.515-.146,12.3.032,6.77.317,10.928,4.252,11.073,10.219.152,6.256-4,10.71-11,10.81q-23.061.329-46.132-.019c-6.707-.106-10.768-4.469-10.769-10.484s4.092-10.134,10.769-10.5c3.935-.218,7.893-.039,12.222-.039V287.007c-2.046,2.057-3.533,3.666-5.139,5.145-4.455,4.1-10.556,4.216-14.674.337a10.32,10.32,0,0,1-.453-14.648c7.571-8.516,15.372-16.83,23.107-25.2,3.24-3.506,7.171-4.881,11.766-3.126,5.075,1.937,6.919,6.051,6.925,11.181q.029,26.595.013,53.191Z" transform="translate(-3.996 -3.987)"/><path d="M354.454,196.058c4.752,0,8.7-.1,12.636.023,6.57.214,10.791,4.349,10.785,10.375,0,5.987-4.292,10.347-10.8,10.4q-23.059.2-46.121.01c-6.582-.047-10.915-4.251-11.036-10.208-.125-6.211,4.23-10.406,11.144-10.592,3.773-.1,7.552-.018,11.8-.018V163.5l-1.132-1.394c-1.283,1.821-2.327,3.888-3.895,5.416-4.426,4.313-10.4,4.429-14.625.551a10.3,10.3,0,0,1-.61-14.645c7.54-8.538,15.359-16.829,23.053-25.231,3.257-3.557,7.26-4.832,11.784-3.241,4.841,1.7,6.952,5.6,6.977,10.566.068,13.564.035,27.13.041,40.695C354.456,182.525,354.454,188.835,354.454,196.058Z" transform="translate(-3.996 -3.987)"/><path d="M90.748,320.394c4.32,0,8.078-.105,11.829.022,7.019.239,11.527,4.282,11.678,10.3.155,6.2-4.482,10.711-11.737,10.788q-22.272.236-44.548,0c-7.344-.072-11.83-4.373-11.762-10.684.069-6.273,4.595-10.233,12.035-10.417,3.594-.089,7.191-.016,11.141-.016V288.135l-1.352-1.3a40.583,40.583,0,0,1-3.995,5.269c-4.39,4.216-10.516,4.272-14.633.368a10.247,10.247,0,0,1-.452-14.652c7.581-8.522,15.379-16.853,23.132-25.221,3.245-3.5,7.214-4.863,11.793-3.063,4.762,1.872,6.852,5.679,6.858,10.674q.032,26.892.013,53.785Z" transform="translate(-3.996 -3.987)"/><path d="M178.675,196.08c4.838,0,8.971-.142,13.09.033,6.194.264,10.323,4.5,10.323,10.312a10.118,10.118,0,0,1-10.282,10.4q-23.626.267-47.259.008c-6.2-.063-10.342-4.437-10.415-10.234-.078-6.057,4.119-10.28,10.653-10.512,3.949-.141,7.906-.026,12.309-.026V161.858c-2.166,2.472-3.427,4.146-4.922,5.573-4.535,4.328-10.365,4.574-14.661.738a10.254,10.254,0,0,1-.818-14.634c7.782-8.825,15.822-17.425,23.874-26.007a9.807,9.807,0,0,1,11.479-2.405c4.774,1.924,6.61,5.92,6.616,10.854q.03,26.619.013,53.237Z" transform="translate(-3.996 -3.987)"/><path d="M354.454,445.047c4.916,0,8.879-.116,12.833.026,6.448.232,10.682,4.56,10.58,10.6-.1,5.8-4.215,10.078-10.454,10.138q-23.61.23-47.224-.018a9.994,9.994,0,0,1-10.274-10.338c.008-5.765,4.206-10.1,10.306-10.368,4.12-.178,8.255-.033,12.745-.033V410.753c-2.289,2.622-3.631,4.461-5.271,5.98-4.566,4.229-10.429,4.255-14.625.225a10.162,10.162,0,0,1-.667-14.234c7.885-8.962,16.016-17.715,24.234-26.374a9.472,9.472,0,0,1,10.993-2.279c4.812,1.922,6.773,5.771,6.791,10.71.051,13.751.028,27.5.033,41.254C354.456,432.151,354.454,438.267,354.454,445.047Z" transform="translate(-3.996 -3.987)"/><path d="M178.675,445.038c4.569,0,8.341-.069,12.111.015,6.874.152,11.338,4.338,11.3,10.485-.037,5.99-4.289,10.243-10.888,10.3q-23.057.2-46.117.01c-6.634-.053-10.865-4.217-10.943-10.216-.08-6.227,4.291-10.42,11.155-10.58,3.773-.087,7.55-.015,11.792-.015V412.554l-1.174-1.243c-1.332,1.822-2.425,3.9-4.039,5.418-4.527,4.266-10.426,4.255-14.622.246a10.159,10.159,0,0,1-.663-14.216c7.877-8.962,16.028-17.687,24.221-26.363a9.451,9.451,0,0,1,10.965-2.344c4.793,1.889,6.852,5.711,6.873,10.655.06,14.287.027,28.575.03,42.863C178.676,433.151,178.675,438.731,178.675,445.038Z" transform="translate(-3.996 -3.987)"/><path d="M442.273,320.4c4.36,0,8.117-.1,11.867.021,7.369.242,11.78,4.377,11.66,10.767-.115,6.12-4.445,10.239-11.564,10.315q-22.53.242-45.064-.009c-6.931-.085-11.432-4.532-11.431-10.533s4.522-10.252,11.437-10.532c3.772-.152,7.555-.027,11.708-.027V286.542c-2.236,2.423-3.749,4.363-5.56,5.966a10.489,10.489,0,0,1-14.294.007,10.047,10.047,0,0,1-.778-14.2c7.881-8.97,16.028-17.71,24.227-26.393,3.149-3.335,7.218-4.057,11.477-2.219,4.525,1.954,6.3,5.714,6.3,10.462q.011,26.606.016,53.21C442.274,315.5,442.273,317.635,442.273,320.4Z" transform="translate(-3.996 -3.987)"/><path d="M344.043,43.111q41,0,82.01.036a21.517,21.517,0,0,1,6.919.882c4.865,1.691,7.126,5.463,6.682,10.554s-3.386,8.277-8.438,9.218a32.761,32.761,0,0,1-5.951.319q-81.466.024-162.933.01c-9.814,0-14.78-3.462-14.885-10.318-.107-6.977,5.149-10.7,15.129-10.7Q303.31,43.107,344.043,43.111Z" transform="translate(-3.996 -3.987)"/><path d="M186.284,53.52a10.473,10.473,0,0,1-10.248,10.5,10.265,10.265,0,0,1-10.69-9.969,10.529,10.529,0,0,1,10.413-10.884A10.781,10.781,0,0,1,186.284,53.52Z" transform="translate(-3.996 -3.987)"/><path d="M82.722,43.161A10.427,10.427,0,0,1,93.1,53.523a10.395,10.395,0,1,1-20.788-.031A10.48,10.48,0,0,1,82.722,43.161Z" transform="translate(-3.996 -3.987)"/><path d="M129.006,43.175a10.655,10.655,0,0,1,10.7,10.109,10.385,10.385,0,0,1-9.958,10.723,10.184,10.184,0,0,1-10.866-10.27A10.356,10.356,0,0,1,129.006,43.175Z" transform="translate(-3.996 -3.987)"/></svg>