<svg id="Layer_1" data-name="Layer 1" xmlns="http://www.w3.org/2000/svg" viewBox="0 0 487.956 484.931"><title>Torrent-1</title><path d="M6.672,237.891c1.23-9.081,2.1-18.226,3.748-27.231q17.685-96.756,96.961-155.1C155.169,20.426,209.231,4.939,268.217,9.49,342.7,15.237,402.628,48.905,447.285,108.7c33.032,44.232,48.207,94.554,47.3,149.714-.1,6.187-.537,12.379-1.082,18.545-.652,7.374-4.383,10.679-11.769,9.525a152.629,152.629,0,0,1-23.128-5.234c-11.105-3.57-20.119-10.536-25.636-20.878-12.981-24.334-26.037-48.656-38.022-73.485-10.747-22.265-20.1-45.2-30.077-67.841-.633-1.436-1.322-2.847-2.193-4.715l-54.108,13.483c.753,1.816,1.366,3.355,2.024,4.874,16.758,38.712,33.333,77.5,50.391,116.083,5.573,12.6,5.169,24.686-.484,36.755-11.6,24.78-31.82,39.273-57.8,45.356-11.121,2.6-22.962,3.145-34.444,2.931-14.141-.264-25.541-7.879-35.654-17.256-15.344-14.228-26.33-31.677-36.334-49.805-17.289-31.328-30.034-64.7-43.811-97.61-2.326-5.557-5.139-10.917-7.3-16.532-1.621-4.212-4.455-5.509-8.516-4.8-13.733,2.411-27.516,4.595-41.149,7.482-7.043,1.492-13.81,4.284-21.282,6.674,2.348,7.758,4.092,14.84,6.61,21.633Q118.19,284.4,155.85,385.076c10.942,29.085,22.633,57.889,34.1,86.774,1.705,4.293,2.518,8.286-.942,11.945s-7.593,3.153-11.9,1.642C88.464,454.366,33.669,392.774,11.826,301.706,9.47,291.883,8.912,281.63,7.494,271.58c-.2-1.392-.544-2.762-.822-4.143Zm468.919,29.435C484.8,174.028,422,57.666,296.011,31.512,169.934,5.34,49.483,89.324,28.03,214.673,7.037,337.334,89.08,434.309,166.3,461.456c-.7-1.84-1.317-3.441-1.929-5.043C133.86,376.424,103.164,296.5,72.985,216.388c-6.076-16.13-10.559-32.9-15.1-49.555-3.4-12.482-1.715-15.772,10.019-20.83a199.229,199.229,0,0,1,72.035-15.995c9.384-.352,15.926,3.34,19.772,11.807,4.327,9.524,8.752,19.01,12.782,28.66,12.893,30.876,25.2,62.017,41.76,91.208,9.031,15.921,18.712,31.395,32.7,43.6,6.45,5.627,13.611,10.457,22.379,10.562,8.99.106,18.2-.127,26.952-1.941,19.965-4.136,36.1-14.43,46.286-32.719,4.734-8.5,5.577-16.923,1.42-26.324-18.723-42.347-37-84.889-55.425-127.369-3.568-8.229-1.191-13.034,7.483-15.2q33.7-8.412,67.412-16.781c7.81-1.943,10.8-.344,14.089,7.18,11.38,26,22.253,52.246,34.395,77.888,11.05,23.339,23.378,46.08,35.389,68.955C453.236,260.772,463.7,265.222,475.591,267.326Z" transform="translate(-6.672 -8.714)"/><path d="M260.713,371.892c17.136-2.039,34.373-3.461,51.385-6.252,30.406-4.989,50.993-23.341,64.843-50.06,2.039-3.932,3.58-8.118,5.5-12.116,2.905-6.052,10.049-7.576,14.6-2.823,12.7,13.266,28.964,19.1,46.406,22.023,8.557,1.433,17.368,1.492,26.078,1.839,8.928.355,12.915,5.649,9.638,13.868C448.955,414.144,394.9,464.046,316.718,487.552c-7.873,2.367-16.009,3.914-24.082,5.547-7.775,1.573-10.684-.076-13.848-7.246C264,452.355,249.479,418.739,234.3,385.421c-4.011-8.805,1.3-16.455,10.079-15.2,5.291.753,10.776.138,16.173.138Zm-4.442,17.171a18.743,18.743,0,0,0,.672,2.429c11.756,26.685,23.585,53.338,35.225,80.073,1.366,3.137,3.146,2.757,5.643,2.179q103.977-24.066,154.083-118.276c2.134-4.009,3.933-8.2,6.287-13.141-23.639-.823-44.862-7.23-64.193-19.889-1,1.8-1.753,3.177-2.525,4.548-14.466,25.73-34.279,45.407-63.49,53.174-13.409,3.566-27.322,5.471-41.119,7.255C276.879,388.705,266.718,388.554,256.271,389.063Z" transform="translate(-6.672 -8.714)"/></svg>