<svg id="Layer_1" data-name="Layer 1" xmlns="http://www.w3.org/2000/svg" viewBox="0 0 502.087 502.087"><title>Video</title><path d="M248.155,4.956c10.633,1.59,21.336,2.813,31.885,4.84,26.9,5.168,51.838,15.424,75.068,29.882,4.936,3.072,6.276,7.1,3.8,11s-6.6,4.523-11.565,1.435c-27.771-17.265-57.9-27.959-90.4-31.178C200,15.3,148.29,29.508,103.011,64.639c-45.086,34.98-72.414,81.1-80.9,137.553C7.439,299.765,59.914,394.575,153.417,432.47a15.521,15.521,0,0,0,5.692.988q74.768.078,149.536-.014a16.818,16.818,0,0,0,6.6-1.319c72.169-31.962,116.968-86.609,129.685-164.413s-13-143.439-71.406-196.27c-4.42-4-5.509-7.327-3.3-10.986,2.53-4.191,7.748-5.065,11.731-1.013,11.772,11.978,24.426,23.374,34.5,36.689,59.353,78.452,62,183.4,7.474,265.489-.807,1.215-1.559,2.465-2.677,4.238l24.307,21.6,30-28.918c-5.692-6.022-11.235-11.909-16.8-17.771-2.631-2.77-3.606-5.825-1.623-9.339,2.366-4.194,7.758-5.239,11.278-1.583,9.738,10.115,20.051,19.879,28.353,31.1,5.118,6.917,6.969,16.249,10.287,24.5v13.729c-1.33,4.5-2.264,9.153-4.055,13.455-8.642,20.753-17.277,41.515-26.384,62.066-6.7,15.126-18.411,25.038-34.235,29.976-2.921.911-5.914,1.588-8.874,2.374H34.375c-1.635-2.783-4.624-5.535-4.687-8.353-.421-18.936-.263-37.887-.194-56.833.021-5.654,2.77-8.287,8.53-8.336,8.982-.077,17.966-.021,26.949-.02.326,0,.654-.01.98.012,4.521.312,7.613,3.305,7.594,7.347s-3.1,7.179-7.647,7.282c-7.124.162-14.254.043-21.386.043v43.747H88.3c0-15.754,0-31.1,0-46.452,0-10.358,1.6-11.98,11.8-11.981h19.621a7.645,7.645,0,0,0-2.849-2.761c-57.037-35.1-93-85.229-107.1-150.764-2.253-10.467-3.241-21.206-4.814-31.82V219.716c.292-1.422.646-2.835.867-4.269C7.509,204.494,8.545,193.4,10.934,182.6,30.405,94.61,103.9,24.412,192.679,8.8c8.96-1.575,18.022-2.575,27.037-3.843ZM461.64,433.236q.429-1.278.859-2.554c-15.754-18.439-33.438-35.092-50.157-53.275A244.466,244.466,0,0,1,348.1,433.075C386.149,433.3,423.9,433.83,461.64,433.236ZM146.805,492.1V448.573H103.241V492.1Zm15.277-43.691v43.639h43.553V448.406Zm102.364,43.721V448.6h-43.5v43.523Zm15.333-43.694v43.586h43.5V448.433Zm102.464.108H338.726v43.541h43.517Zm59.066.056H397.466v43.467c11.36,0,22.435.1,33.507-.076a22.39,22.39,0,0,0,7.6-1.714c1.157-.453,2.6-2.116,2.614-3.249C441.377,474.305,441.309,461.581,441.309,448.6Zm35.138-24.048c16.8-11.836,21.418-40.24,8.443-54.589l-30.525,29.467C461.745,407.824,468.936,416,476.447,424.549ZM456.2,479.511c8.961-11.258,11.98-23.679,17.69-35.445l-17.69,4.365Z" transform="translate(-4.956 -4.956)"/><path d="M233.872,163.207c-10.092-.058-19.339-3.157-28.03-7.906-21.9-11.966-38.883-29.007-51.377-50.548a61.184,61.184,0,0,1-3.941-8.412c-5.062-12.942-2.914-24.677,6.27-35.065,9.053-10.24,20.726-16.4,33.559-20.2,35.086-10.4,69.62-9.652,102.938,6.734A63.245,63.245,0,0,1,308,58.235c12.657,11.724,15.59,25.334,8.024,40.858-13.2,27.088-33.793,46.977-61.239,59.539-3.959,1.812-8.362,2.747-12.641,3.736A62.413,62.413,0,0,1,233.872,163.207ZM165.651,94.168c.613,1.363.933,2.266,1.4,3.082,1.3,2.261,2.557,4.559,4.023,6.712A124.478,124.478,0,0,0,210.2,141.033c15.945,9.6,31.665,9.516,47.581-.09a123.864,123.864,0,0,0,39.053-37.14c1.968-2.911,3.563-6.075,5.585-9.562C256.479,73.315,211.266,73.288,165.651,94.168ZM163,79.09c47.707-20.238,94.236-20.227,141.109-.889-1.1-2.686-2.136-5.393-4.072-7.039-4.684-3.984-9.369-8.316-14.8-11.015-22.545-11.209-46.592-12.868-71.158-9.61-12.374,1.64-24.26,5.071-35.114,11.443C172.429,65.818,166.659,70.479,163,79.09Z" transform="translate(-4.956 -4.956)"/><path d="M431.669,215.375c-1.3,8.182-1.978,16.522-4.016,24.516-6.311,24.747-22.323,34.812-47.2,29.533a132.553,132.553,0,0,1-61.209-31.2c-18.249-16.189-23.991-36.19-18.375-59.743,5.606-23.513,16.219-44.4,33.113-61.753,15.133-15.543,31.285-16.881,49.26-4.584,12.536,8.576,21.556,20.3,28.8,33.461A158.065,158.065,0,0,1,431.669,215.375Zm-86.562-90.349c-1.693,2.238-2.991,4.106-4.441,5.848a125.648,125.648,0,0,0-25.128,49.269c-5.244,20-.1,36.212,15.953,49.313a127.177,127.177,0,0,0,46.455,24.361c3.073.863,6.277,1.263,10.03,2C393.63,205.711,379.6,162.826,345.107,125.026Zm58.019,128.419c7.686-6.6,10.473-14.5,11.757-22.925,4.094-26.862-2.319-51.816-14.486-75.575-5.7-11.14-12.994-21.138-22.962-28.916-5.019-3.917-10.481-6.948-18.014-7.233C393.127,157.518,407.59,201.806,403.126,253.445Z" transform="translate(-4.956 -4.956)"/><path d="M319.512,279.693a142.716,142.716,0,0,1,49.21,9.7,85.852,85.852,0,0,1,9.714,4.592c16.768,9.254,22.8,22.862,18.168,41.456-4.614,18.546-15.566,33.255-29.117,46.137-20.02,19.033-42.9,33.161-70.605,37.521a75.567,75.567,0,0,1-24.243-.468c-13.422-2.328-22.524-10.868-25.189-24.264-6.4-32.163-1.609-62.712,16.113-90.6,9.8-15.421,25.341-21.336,42.762-23.2C310.7,280.093,315.115,279.973,319.512,279.693Zm51.226,26.919c-1.245-.676-2.461-1.46-3.77-2.029-17.836-7.752-36.454-10.534-55.87-9.724-22.61.943-36.586,12.549-43.939,33.324-6.238,17.63-9.066,35.685-7.167,54.368a32.919,32.919,0,0,0,.922,4.068C307.326,379.924,352.1,345.815,370.738,306.612ZM267.6,400.872c9.649,5.78,18.9,5.519,28.08,3.739,25.908-5.024,47.047-18.677,65.254-37.236,9.462-9.646,17.238-20.485,20.993-33.707,1.4-4.919,2.467-9.972.061-15.63C355.686,361.873,318.011,389.238,267.6,400.872Z" transform="translate(-4.956 -4.956)"/><path d="M149.505,279.5c6.053.674,13.084,1.073,19.968,2.3,17.481,3.114,30.6,12.585,38.874,28.346a125.789,125.789,0,0,1,13.1,79.7C218.169,410.8,202.5,421.74,179.919,420.2c-28.286-1.93-51.717-14.817-72.887-32.524-14.312-11.97-26.2-26-33.053-43.635a61.918,61.918,0,0,1-3.913-15.584c-1.478-13.679,3.524-24.63,15.32-32.1,13.2-8.363,27.939-12.416,43.175-14.791C135.157,280.533,141.865,280.226,149.505,279.5ZM96.452,306.841c24.93,43.777,61.359,70.3,111.56,80.5,0-9.183.459-17.452-.1-25.652a108.331,108.331,0,0,0-12.361-44.427c-6.382-11.892-16.073-19.445-29.464-20.979a164.409,164.409,0,0,0-29.222-.856A98.219,98.219,0,0,0,96.452,306.841ZM85.6,317.626c-2.645,10.243.325,18.5,4.37,26.392,9.9,19.31,25.346,33.4,43.387,44.833,14.209,9.006,29.411,15.56,46.467,16.656,6.8.438,13.511-.116,20.12-4.694C149.887,389.249,112.2,361.932,85.6,317.626Z" transform="translate(-4.956 -4.956)"/><path d="M122.2,126.369C87.034,160.575,72.926,215.411,80.583,256.2c6.58-1.932,13.082-3.811,19.563-5.762,2.336-.7,4.564-1.88,6.938-2.316,3.878-.713,6.724,1.014,8.086,4.733,1.314,3.586.142,6.929-3.079,8.4C98.31,267.568,84,272.36,68.577,270.3c-11.653-1.557-19.2-9.168-24.33-19.3-5.506-10.883-7.458-22.621-7.2-34.671.794-36.622,12.148-69.226,37.8-96.033a63.484,63.484,0,0,1,13.961-10.644c15.663-9.1,29.8-7.354,43,5.045,12.1,11.36,20.682,25.189,27.323,40.271,5.3,12.023,9.063,24.438,9.759,37.7.749,14.252-3.208,26.908-12.825,37.408a183.618,183.618,0,0,1-17.177,15.964c-3.839,3.24-8.178,2.558-10.8-.889-2.6-3.418-1.819-7.466,1.976-10.746,4.2-3.627,8.506-7.147,12.46-11.025,9.822-9.633,13.44-21.52,11.3-34.942-3.667-23.024-13.678-43.085-29.279-60.377a11.188,11.188,0,0,0-1.454-1.3A3.722,3.722,0,0,0,122.2,126.369Zm-13.766-7.587c-7.607.288-13.1,3.389-18.154,7.344-9.96,7.795-17.239,17.81-22.926,28.962-12.21,23.941-18.64,49.066-14.3,76.1,1.323,8.226,4.122,15.945,11.625,22.155C60.193,201.921,74.657,157.491,108.435,118.782Z" transform="translate(-4.956 -4.956)"/><path d="M211.884,234.139a22.044,22.044,0,1,1,22.36,21.84A22.126,22.126,0,0,1,211.884,234.139Zm22.1,7.125a7.327,7.327,0,1,0-7.378-7.017A7.458,7.458,0,0,0,233.986,241.264Z" transform="translate(-4.956 -4.956)"/></svg>