<?xml version="1.0" encoding="utf-8"?>
<!-- Generator: Adobe Illustrator 23.0.0, SVG Export Plug-In . SVG Version: 6.00 Build 0)  -->
<svg version="1.1" id="Layer_1" xmlns="http://www.w3.org/2000/svg" xmlns:xlink="http://www.w3.org/1999/xlink" x="0px" y="0px"
	 viewBox="0 0 500 500" style="enable-background:new 0 0 500 500;" xml:space="preserve">
<path d="M380.3,228.3H271.7V119.7c0-12-9.7-21.7-21.7-21.7c-12,0-21.7,9.7-21.7,21.7v108.6H119.7c-12,0-21.7,9.7-21.7,21.7
	c0,12,9.7,21.7,21.7,21.7h108.6v108.6c0,12,9.7,21.7,21.7,21.7c12,0,21.7-9.7,21.7-21.7V271.7h108.6c12,0,21.7-9.7,21.7-21.7
	C402,238,392.3,228.3,380.3,228.3z"/>
</svg>
