<svg id="Layer_1" data-name="Layer 1" xmlns="http://www.w3.org/2000/svg" viewBox="0 0 485.311 477.406"><title>Browse_2</title><path d="M7.344,228.2c1.594-9.609,2.839-19.291,4.843-28.813A238.417,238.417,0,0,1,64.35,93.02c.407-.481.781-.991,1.366-1.738C71.358,96.014,76.462,100.99,82.239,105c12.943,8.982,26.187,17.533,39.4,26.125,2.095,1.363,3.934,2.134,3.012,5.326-8.975,31.1-13.193,62.941-14.743,95.2-.038.777-.2,1.547-.4,2.957h-5.533q-45.483,0-90.966.01c-1.888,0-3.777.148-5.665.227Z" transform="translate(-7.344 -11.297)"/><path d="M7.344,265.169c13.417.079,26.834.2,40.25.227,18.793.039,37.587.01,56.38.01h5.591c.3,3.556.665,6.8.829,10.046a403.224,403.224,0,0,0,13.917,87.216c.683,2.477,1.114,4.256-1.832,5.8A260.4,260.4,0,0,0,67.4,407.506a22.033,22.033,0,0,1-1.982,1.315c-5.876-7.9-12.1-15.578-17.582-23.752A237.935,237.935,0,0,1,8.17,274.923a40.7,40.7,0,0,0-.826-4.067Z" transform="translate(-7.344 -11.297)"/><path d="M492.656,234.37H390.34c-.589-8.022-1.133-15.849-1.745-23.671a383.325,383.325,0,0,0-12.865-73c-.936-3.362-.448-4.931,2.731-6.618a259.937,259.937,0,0,0,51.724-36.407c1.161-1.04,2.364-2.033,3.983-3.421C469.4,132.592,488.688,180.073,492.656,234.37Z" transform="translate(-7.344 -11.297)"/><path d="M492.653,265.729c-3.99,54.245-23.288,101.643-58.392,142.947-5.927-4.965-11.266-10.162-17.307-14.347-12.813-8.876-25.948-17.3-39.066-25.722-2.128-1.367-3.312-2.349-2.519-5.111,8.88-30.933,13.114-62.6,14.686-94.668.045-.933.22-1.86.373-3.1Z" transform="translate(-7.344 -11.297)"/><path d="M140.89,234.234c1.158-29.893,5.073-58.977,13.065-87.85,8.159,2.557,15.879,5.169,23.709,7.391a247.792,247.792,0,0,0,52.573,9.066c2.623.161,4.425.4,4.4,3.873-.137,21.786-.074,43.573-.094,65.36a15.747,15.747,0,0,1-.344,2.16Z" transform="translate(-7.344 -11.297)"/><path d="M153.963,353.724a382.371,382.371,0,0,1-13.053-88h93.261a36.521,36.521,0,0,1,.387,3.732c.023,21-.027,41.994.067,62.991.014,3-.5,4.533-4.016,4.741A257.4,257.4,0,0,0,158.2,352.415C157.035,352.835,155.834,353.149,153.963,353.724Z" transform="translate(-7.344 -11.297)"/><path d="M265.415,234.235V223.1c0-18.471.038-36.942-.038-55.412-.012-2.861.238-4.65,3.88-4.858,25.208-1.44,49.594-6.916,73.323-15.445a22.909,22.909,0,0,1,2.243-.715,4.784,4.784,0,0,1,1.347.224c7.837,28.357,11.745,57.439,12.927,87.346Z" transform="translate(-7.344 -11.297)"/><path d="M359.1,265.766C357.909,295.678,354,324.76,346.06,353.51c-8.942-2.728-17.343-6.045-26.058-7.79-16.662-3.335-33.492-5.84-50.279-8.518-2.583-.412-4.394-.476-4.372-3.931.137-21.785.075-43.572.1-65.358a15.121,15.121,0,0,1,.35-2.147Z" transform="translate(-7.344 -11.297)"/><path d="M164.242,383.5c14.985-7.406,53.757-15.873,70-15.2V466.72c-2.2-.746-4.251-1.285-6.175-2.117-14.439-6.249-25.463-16.69-35.165-28.752C182.015,422.315,167.324,395.518,164.242,383.5Z" transform="translate(-7.344 -11.297)"/><path d="M234.355,33.709v98.306a232.2,232.2,0,0,1-69.921-15.065C168.324,87.3,210.139,37.353,234.355,33.709Z" transform="translate(-7.344 -11.297)"/><path d="M336.484,116.314c-17.5,7.978-51.827,15.45-70.638,15.493V32.328c6.549,3.5,12.767,6.147,18.239,9.882,18.354,12.528,30.541,30.32,40.734,49.6C329,99.708,332.53,107.954,336.484,116.314Z" transform="translate(-7.344 -11.297)"/><path d="M265.7,466.254V367.985A231.358,231.358,0,0,1,335.6,383.042C331.058,413.5,289.6,462.942,265.7,466.254Z" transform="translate(-7.344 -11.297)"/><path d="M364.537,103.554c-15.71-36.976-35.229-70.257-70.221-91.77,21.858-2.979,89.908,30.053,117.806,57.278A231.127,231.127,0,0,1,364.537,103.554Z" transform="translate(-7.344 -11.297)"/><path d="M412.11,431.225c-34.073,30.193-73.065,49.49-117.729,57.478,34.761-21.858,54.4-55.149,69.856-91.56C371.25,398.21,403.786,421.665,412.11,431.225Z" transform="translate(-7.344 -11.297)"/><path d="M205.63,488.668c-44.695-7.994-83.75-27.277-117.931-57.646a236.782,236.782,0,0,1,47.726-34.528C151.089,433.251,170.659,466.824,205.63,488.668Z" transform="translate(-7.344 -11.297)"/><path d="M87.69,68.993C121.844,38.6,160.943,19.34,205.674,11.3c-34.86,21.823-54.494,55.175-70.181,92.146A230.814,230.814,0,0,1,87.69,68.993Z" transform="translate(-7.344 -11.297)"/></svg>