<svg id="Layer_1" data-name="Layer 1" xmlns="http://www.w3.org/2000/svg" viewBox="0 0 474.229 461.993"><title>Browse_1</title><path d="M47.4,128.055v318.32H365.892v-6.284q0-57.472-.022-114.946c-.011-7.959,2.556-14.381,10.09-17.922a16.917,16.917,0,0,1,24,13.932c.159,1.771.143,3.56.144,5.341q.011,66.83,0,133.658c0,14.711-6.108,20.84-20.7,20.841q-172.953,0-345.907,0c-14.13,0-20.606-6.435-20.607-20.539q-.014-172.954,0-345.908c0-14.535,6.251-20.711,20.892-20.712q55.335,0,110.669.027a17.043,17.043,0,0,1,16.478,11.343c2.315,6.519.765,14.394-5.013,18.3a25.61,25.61,0,0,1-13.225,4.356c-29.757.375-59.52.2-89.281.2Z" transform="translate(-12.886 -19.003)"/><path d="M418.819,88.46c-14.01-10.626-26.892-20.395-39.773-30.166-3.406-2.583-6.837-5.134-10.21-7.759-8.384-6.526-10.237-16.66-4.508-24.449,5.973-8.122,16.325-9.47,25.026-2.944q41.034,30.777,81.937,61.731c2.56,1.93,5.138,3.838,7.674,5.8,9.334,7.214,10.775,16.607,3.676,26.086q-27.066,36.142-54.335,72.131c-4.289,5.689-8.527,11.417-12.879,17.057-6.867,8.9-17.252,10.747-25.237,4.574-7.815-6.041-8.735-16.358-2.109-25.161q21.529-28.6,43.153-57.138c1.155-1.53,2.24-3.113,4.252-5.92-10.081.595-19.041.8-27.929,1.7-46.394,4.716-89.873,18.326-129.173,43.819-39,25.3-68.894,58.3-84.536,102.874a163.069,163.069,0,0,0-8.835,51.891c-.115,7.578-3.748,12.954-10.562,15.89-6.725,2.9-12.97,1.365-18.284-3.516-4.388-4.03-5.488-9.324-5.355-15.092.894-38.752,12.261-74.263,33.477-106.556,29.789-45.342,71.19-76.634,120.487-98.015a324.749,324.749,0,0,1,107.4-25.967C413.931,89.208,415.675,88.879,418.819,88.46Z" transform="translate(-12.886 -19.003)"/></svg>