<svg id="Layer_1" data-name="Layer 1" xmlns="http://www.w3.org/2000/svg" viewBox="0 0 480.993 422.736"><title>calendar</title><path d="M10.007,359.972c3.173-3.775,6.143-7.746,9.553-11.3,23.212-24.161,39.982-52.377,52.363-83.3,13.847-34.587,21.058-70.62,22.748-107.8.07-1.54.263-3.075.425-4.9h395.61c-.884,11.117-1.432,22.021-2.668,32.847-5.344,46.825-18.542,91.194-42.17,132.191-11.3,19.611-24.645,37.686-40.837,53.612a21.755,21.755,0,0,1-16.344,6.588q-180.11-.186-360.218.034c-8.622.013-14.805-2.554-18.462-10.458Z" transform="translate(-10.007 -39.635)"/><path d="M95.489,406h6.176q143.7,0,287.4.085c13.8.023,25.212-4.524,35.073-14.063,27.523-26.621,47.6-58.243,63.1-92.991.954-2.138,1.872-4.291,3.231-7.411a32.331,32.331,0,0,1,.5,3.619q.027,75.841,0,151.683c-.006,9.71-5.775,15.432-15.519,15.433q-182.206.024-364.414,0c-9.776,0-15.51-5.7-15.543-15.4C95.455,433.521,95.489,420.08,95.489,406Z" transform="translate(-10.007 -39.635)"/><path d="M95.522,123.849c0-14.532-.2-28.76.081-42.978.154-7.774,6.47-13.025,14.915-13.043,21.288-.047,42.576-.016,63.864-.016h5.659c0-4.648-.042-8.975.009-13.3.1-8.752,5.977-14.909,14.132-14.874,8.132.034,13.909,6.184,14.028,15.005.058,4.2.01,8.4.01,12.88h70.462c0-4.483-.049-8.824.011-13.164.117-8.495,5.871-14.594,13.815-14.721,8.178-.131,14.181,5.979,14.337,14.686.078,4.342.014,8.686.014,13.253h71.4c0-4.278-.036-8.589.007-12.9.089-8.819,5.838-14.987,13.971-15.041,8.166-.054,14.058,6.072,14.191,14.831.064,4.214.011,8.429.011,13.344h5.144q31.7,0,63.4.006c10.454.009,15.978,5.474,16,15.843.032,13.287.008,26.574.008,40.188Z" transform="translate(-10.007 -39.635)"/></svg>