<svg id="Layer_1" data-name="Layer 1" xmlns="http://www.w3.org/2000/svg" viewBox="0 0 482.225 481.959"><title>Category</title><path d="M8.943,169.736q0-54.94.006-109.879C8.97,29.7,29.5,9.154,59.642,9.135q61.711-.037,123.425,0c30.154.018,50.7,20.541,50.706,50.7q.039,109.879,0,219.757c-.01,30.164-20.552,50.709-50.686,50.728q-61.711.039-123.424,0C29.535,330.3,8.971,309.739,8.949,279.614Q8.912,224.675,8.943,169.736Zm32.12-.251q0,55.2.006,110.4c0,11.94,6.33,18.309,18.21,18.314q61.974.027,123.95,0c12.246,0,18.427-6.243,18.428-18.6q.015-109.9,0-219.8c0-12.294-6.237-18.548-18.476-18.551q-61.723-.017-123.448,0c-12.613,0-18.664,6.112-18.667,18.835Q41.054,114.786,41.063,169.485Z" transform="translate(-8.888 -9.02)"/><path d="M490.74,330.322q0,54.688,0,109.377c-.014,30.841-20.377,51.213-51.2,51.223q-61.211.021-122.421,0c-30.813-.01-51.2-20.4-51.209-51.221q-.016-109.377,0-218.753c.005-30.832,20.381-51.207,51.207-51.217q61.21-.019,122.421,0c30.833.01,51.189,20.369,51.2,51.215Q490.761,275.634,490.74,330.322Zm-192.718.123q0,54.95,0,109.9c0,12.238,6.26,18.454,18.573,18.458q61.724.016,123.448,0c12.348,0,18.566-6.177,18.568-18.461q.016-109.9,0-219.8c0-12.55-6.2-18.692-18.838-18.694q-61.473-.011-122.946,0c-12.71,0-18.8,6.056-18.807,18.7Q298.01,275.5,298.022,330.445Z" transform="translate(-8.888 -9.02)"/><path d="M378.211,137.608c-20.734,0-41.469.036-62.2-.009-29.4-.064-50.123-20.8-50.062-50.3.026-12.854-.593-25.854,1.069-38.527,2.9-22.138,22.822-39.311,45.206-39.489q65.961-.524,131.928-.016a46.476,46.476,0,0,1,45.918,42.186,211.929,211.929,0,0,1-.436,46.005c-2.718,23.046-22.9,39.783-46.208,40.07-21.734.268-43.474.057-65.212.057Zm.368-96.358c-21.242,0-42.484-.053-63.726.023-10.03.036-16.706,6.677-16.806,16.636-.1,10.2-.085,20.406-.007,30.608.078,10.228,6.763,16.937,17.036,16.949q63.224.075,126.448,0c10.332-.012,16.984-6.647,17.076-16.907.088-9.867.054-19.736.011-29.605-.049-11.213-6.548-17.681-17.812-17.7Q409.689,41.211,378.579,41.25Z" transform="translate(-8.888 -9.02)"/><path d="M121.377,490.919q-31.1.01-62.2,0c-29.455-.056-50.236-20.746-50.187-50.177.022-12.855-.608-25.856,1.052-38.529,2.907-22.2,22.745-39.419,45.1-39.6q66.21-.543,132.429,0c24.026.215,44.541,19.863,45.885,44,.814,14.637,1.041,29.535-.743,44.036-2.869,23.313-23.008,39.964-46.623,40.211C164.519,491.09,142.947,490.913,121.377,490.919Zm-.166-96.352c-20.907,0-41.814-.033-62.722.014-10.928.024-17.367,6.548-17.416,17.557-.044,9.868-.065,19.736.007,29.6.074,10.278,6.708,17.027,16.945,17.04q63.224.081,126.447,0c10.586-.011,17.108-6.653,17.176-17.317.061-9.533.032-19.067.009-28.6-.028-11.941-6.336-18.284-18.225-18.3Q152.321,394.542,121.211,394.567Z" transform="translate(-8.888 -9.02)"/></svg>