<svg id="Layer_1" data-name="Layer 1" xmlns="http://www.w3.org/2000/svg" viewBox="0 0 391.81196 557.30986"><title>Down-Arrow</title><path d="M127.26741,405.49513q31.61608,28.67953,63.23224,57.35907,50.33762,45.6622,100.67529,91.32446,11.48053,10.41422,22.96118,20.82849a9.75249,9.75249,0,0,0,6.69116,2.69172,9.61113,9.61113,0,0,0,7.45093-2.69172q31.27285-28.73474,62.54572-57.46954l99.191-91.14081,22.74792-20.90167c9.49829-8.72748-4.67389-22.842-14.14215-14.14215q-31.27285,28.73474-62.54572,57.46954-49.59547,45.57037-99.191,91.14081-7.86108,7.22314-15.72222,14.44623L265.046,503.50593,164.37074,412.18147q-11.48063-10.41422-22.96118-20.82849C131.89528,382.72243,117.70955,396.825,127.26741,405.49513Z" transform="translate(-124.09402 -20.42296)"/><path d="M330.85039,558.81557V95.12928c0-21.343.69508-42.8177,0-64.15274-.00968-.29727,0-.59628,0-.8938,0-12.869-20-12.89036-20,0V493.769c0,21.343-.69507,42.81771,0,64.15275.00969.29727,0,.59628,0,.8938,0,12.869,20,12.89036,20,0Z" transform="translate(-124.09402 -20.42296)"/></svg>