<svg id="Layer_1" data-name="Layer 1" xmlns="http://www.w3.org/2000/svg" viewBox="0 0 485.923 384.235"><title>Folder_1</title><path d="M492.962,357.239c-2.328,9.159-5.835,17.644-13.247,24.027a39.028,39.028,0,0,1-21.078,9.471v-6.225q0-95.348-.015-190.694c-.023-28.749-17.417-51.119-44.541-57.115a70.842,70.842,0,0,0-15.062-1.37q-79.694-.141-159.386.015a8.773,8.773,0,0,1-7.65-3.463c-8-9.793-16.409-19.258-24.289-29.145-6.22-7.8-13.984-11.129-23.88-11.085-39.53.173-79.061.071-118.591.071H59.1c1.3-10.529,6.124-18.493,13.748-24.863,7.6-6.351,16.539-8.945,26.348-8.942q68.784.021,137.566-.039a10.7,10.7,0,0,1,8.912,4.347c9.869,11.942,20,23.667,29.8,35.665,2.268,2.776,4.622,3.644,8.067,3.638,55.5-.091,111-.019,166.5-.1,11.5-.017,21.833,2.778,30.459,10.752,7.034,6.5,10.434,14.847,12.464,23.93Z" transform="translate(-7.038 -57.882)"/><path d="M224.21,442.073q-87.284,0-174.567.045c-13.96.025-25.7-4.315-34.43-15.575-6.082-7.845-8.179-16.884-8.175-26.635q.048-112.425.018-224.85c0-8.381-.042-16.761.008-25.142.145-24.311,16.9-41.221,41.16-41.268,45.539-.089,91.079.01,136.618-.088a11.185,11.185,0,0,1,9.354,4.47c9.994,12.045,20.189,23.923,30.141,36a8.338,8.338,0,0,0,7.243,3.277q84.2-.128,168.4-.058c16.973,0,30.19,6.851,37.534,22.433a44.547,44.547,0,0,1,4.025,18.267q.411,104.122.14,208.247c-.033,24.4-16.937,40.8-41.953,40.849q-68.308.132-136.618.027Z" transform="translate(-7.038 -57.882)"/></svg>