<svg id="Layer_1" data-name="Layer 1" xmlns="http://www.w3.org/2000/svg" viewBox="0 0 490.5 490.505"><title>Info</title><path d="M4.75,264.341V235.6a32.468,32.468,0,0,0,.812-4.13c2.381-34.381,11.513-66.941,28.2-97.01C72.052,65.49,130.049,23.262,207.727,8.552c9.2-1.743,18.582-2.559,27.879-3.8h28.738a25.831,25.831,0,0,0,3.7.785c29.768,2,58.412,8.871,85.089,22.145,87.4,43.487,135.153,114.23,141.6,211.6,3.208,48.466-8.485,94.307-34.05,135.742-45.822,74.268-112.815,114.5-199.936,119.791A228.488,228.488,0,0,1,134.956,466.4C65.8,428.351,23.517,370.318,8.615,292.659,6.822,283.316,6.014,273.785,4.75,264.341ZM250.08,44.784C136.694,44.658,44.845,136.46,44.814,249.945,44.784,363.2,136.137,454.722,249.6,455.107c113.2.384,205.286-91.433,205.509-204.918C455.332,136.846,363.564,44.91,250.08,44.784Z" transform="translate(-4.75 -4.748)"/><path d="M215.1,229.855H189.915V190.111h94.257V373.119H306.4v38.142H188v-18.8c0-5.108.163-10.223-.058-15.321-.138-3.2,1.061-4.142,4.139-4.075,7.615.166,15.236.054,23.025.054Z" transform="translate(-4.75 -4.748)"/><path d="M250.431,93.776c28.307.136,45.032,27.825,31.173,51.953-7.086,12.334-18.935,16.7-32.365,16.771-25.392.127-41.411-22.088-33.681-46.18C219.942,102.653,233.8,93.7,250.431,93.776Z" transform="translate(-4.75 -4.748)"/></svg>