<svg id="Layer_1" data-name="Layer 1" xmlns="http://www.w3.org/2000/svg" viewBox="0 0 471.143 471.36"><title>move-up</title><path d="M229.347,222.406q-13.311,13.38-26.625,26.758-22.848,22.9-45.706,45.791c-4.449,4.479-9.446,7.647-15.983,7.468-8.275-.227-14.38-4.024-17.67-11.679-3.181-7.4-2.283-14.544,3.149-20.531,5.791-6.384,12.034-12.36,18.124-18.47q45.679-45.831,91.383-91.637c8.547-8.567,20.355-8.834,28.561-.6q53.28,53.474,106.48,107.028a31.327,31.327,0,0,1,6.376,8.821c3.7,8.192,1.1,17.164-5.985,22.722a19.152,19.152,0,0,1-23.552.142,103.749,103.749,0,0,1-9.416-8.844q-32.357-32.37-64.668-64.788c-.751-.753-1.6-1.405-3.333-2.908-.157,2.753-.344,4.523-.347,6.294q-.168,117.681-.454,235.363a34.194,34.194,0,0,1-3.554,15.023c-3.374,6.542-12.877,10.241-18.841,8.747-9.667-2.423-15.877-9.337-16.641-18.655-.182-2.223-.108-4.47-.105-6.707q.151-117.2.305-234.4c0-1.521-.136-3.043-.209-4.565Z" transform="translate(-14.857 -16.078)"/><path d="M250.582,55.325q-106.41,0-212.821.042c-6.123.006-11.684-.961-16.378-5.281-5.621-5.172-8.126-13.525-5.452-20.583,2.805-7.4,8.032-12.189,16.21-13.051a73.481,73.481,0,0,1,7.653-.361q210.663-.024,421.328.093a38.374,38.374,0,0,1,14.823,2.645c7.862,3.393,11.4,12.464,9.592,21.464-1.554,7.734-9.168,14.323-17.344,14.916-2.227.161-4.471.112-6.707.112Q356.033,55.329,250.582,55.325Z" transform="translate(-14.857 -16.078)"/></svg>