<?xml version="1.0" encoding="utf-8"?>
<!-- Generator: Adobe Illustrator 23.0.0, SVG Export Plug-In . SVG Version: 6.00 Build 0)  -->
<svg version="1.1" id="Layer_1" xmlns="http://www.w3.org/2000/svg" xmlns:xlink="http://www.w3.org/1999/xlink" x="0px" y="0px"
	 viewBox="0 0 153.1603 200" style="enable-background:new 0 0 153.1603 200;" xml:space="preserve">
	
	<path id="XMLID_642_" class="positive_path" d="M22.5056,99.3467c2.8484-2.8484,7.4606-2.8484,10.309,0l36.3101,36.3101V15.4114
		c0-4.0243,3.2665-7.2908,7.2908-7.2908s7.2908,3.2665,7.2908,7.2908v120.2454l36.3101-36.3101c2.8484-2.8484,7.4606-2.8484,10.309,0
		s2.8484,7.4606,0,10.309l-48.7619,48.7619c-1.4242,1.4242-3.2926,2.1297-5.161,2.1297s-3.7368-0.7056-5.161-2.1297l-48.7619-48.7619
		C19.6573,106.8073,19.6573,102.1951,22.5056,99.3467z M148.2649,184.5755L148.2649,184.5755c0,0.6141-0.0784,1.2151-0.2221,1.777
		c-0.0131,0.0653-0.0392,0.1307-0.0523,0.196c-0.1176,0.4181-0.2613,0.8101-0.4442,1.189c-0.0784,0.1568-0.1568,0.3005-0.2352,0.4573
		c-0.0915,0.1568-0.1829,0.3136-0.2874,0.4704c-0.0653,0.0915-0.1176,0.1829-0.1829,0.2613c0,0.0131-0.0131,0.0131-0.0131,0.0261
		c-0.0392,0.0653-0.0915,0.1176-0.1437,0.1699c-0.0261,0.0392-0.0522,0.0653-0.0784,0.1045
		c-0.0131,0.0131-0.0261,0.0392-0.0392,0.0522c-0.4312,0.5226-0.9408,0.9799-1.5026,1.3589
		c-0.0261,0.013-0.0522,0.0261-0.0653,0.0392c-0.2744,0.1829-0.5488,0.3397-0.8493,0.4834
		c-0.0261,0.0131-0.0653,0.0261-0.0915,0.0392c-0.4704,0.2221-0.9669,0.392-1.4765,0.4965
		c-0.2352,0.0522-0.4834,0.0915-0.7317,0.1307c-0.2744,0.0261-0.5618,0.0522-0.8493,0.0522H11.8961
		c-0.2875,0-0.5749-0.013-0.8493-0.0522c-0.2483-0.0261-0.4965-0.0653-0.7317-0.1307c-0.5226-0.1176-1.0191-0.2875-1.4764-0.4965
		c-0.0261-0.0131-0.0653-0.0261-0.0915-0.0392c-0.1568-0.0784-0.3005-0.1568-0.4573-0.2352
		c-0.1568-0.0915-0.3136-0.1829-0.4704-0.2874c-0.3658-0.2483-0.7056-0.5226-1.0191-0.8362
		c-0.0261-0.0261-0.0392-0.0392-0.0653-0.0653c-0.0261-0.0261-0.0392-0.0392-0.0653-0.0653
		c-0.3005-0.3136-0.588-0.6533-0.8362-1.0191c-0.1045-0.1568-0.196-0.3005-0.2875-0.4704c-0.0784-0.1437-0.1699-0.3005-0.2352-0.4573
		c-0.0131-0.0261-0.0261-0.0653-0.0392-0.0915c-0.2221-0.4704-0.392-0.9669-0.4965-1.4765
		c-0.0523-0.2352-0.0915-0.4834-0.1176-0.7317c-0.0261-0.2744-0.0523-0.5618-0.0523-0.8493v-25.5046
		c0-4.0243,3.2665-7.2908,7.2908-7.2908s7.2908,3.2665,7.2908,7.2908v18.2008h114.4834v-18.2008
		c0-4.0243,3.2665-7.2908,7.2908-7.2908c4.0243,0,7.2908,3.2665,7.2908,7.2908v25.5047H148.2649z"/>
</svg>
