<?xml version="1.0" encoding="utf-8"?>
<!-- Generator: Adobe Illustrator 23.0.0, SVG Export Plug-In . SVG Version: 6.00 Build 0)  -->
<svg version="1.1" id="Layer_1" xmlns="http://www.w3.org/2000/svg" xmlns:xlink="http://www.w3.org/1999/xlink" x="0px" y="0px"
	 viewBox="0 0 153.16031 200" style="enable-background:new 0 0 153.16031 200;" xml:space="preserve">
	<!-- <style type="text/css">
		.st0{fill:#F72323;}
	</style> -->

	<path id="XMLID_642_" class=".negative_path" d="M130.32214,69.3213c-2.84837,2.84837-7.46063,2.84837-10.309,0L83.70302,33.01117v120.24544
		c0,4.02429-3.26647,7.29077-7.29077,7.29077c-4.02429,0-7.29077-3.26648-7.29077-7.29077V33.01117L32.81134,69.3213
		c-2.84836,2.84837-7.46064,2.84837-10.30899,0s-2.84835-7.46062,0-10.30899l48.76192-48.76193
		c1.42418-1.42418,3.2926-2.12975,5.16103-2.12975s3.73685,0.70555,5.16103,2.12975l48.76192,48.76192
		C133.1705,61.86067,133.1705,66.47293,130.32214,69.3213z M148.26488,184.57555L148.26488,184.57555
		c0,0.61409-0.0784,1.21512-0.22212,1.77696c-0.01306,0.06532-0.0392,0.13066-0.05226,0.19597
		c-0.11758,0.41812-0.26131,0.81009-0.44423,1.18901c-0.0784,0.15678-0.15678,0.30051-0.23518,0.45731
		c-0.09146,0.15678-0.18291,0.3136-0.28745,0.47038c-0.06534,0.09146-0.11758,0.18292-0.18292,0.26131
		c0,0.01306-0.01306,0.01306-0.01306,0.02614c-0.03918,0.06534-0.09146,0.11758-0.14372,0.16986
		c-0.02614,0.0392-0.05225,0.06534-0.07838,0.10454c-0.01306,0.01306-0.02614,0.03918-0.0392,0.05225
		c-0.43118,0.52263-0.94075,0.97995-1.50258,1.35886c-0.02614,0.01305-0.05225,0.02612-0.06532,0.03918
		c-0.2744,0.18292-0.54877,0.33971-0.84927,0.48343c-0.02614,0.01306-0.06534,0.02614-0.09148,0.0392
		c-0.47037,0.22212-0.96689,0.39198-1.47646,0.49652c-0.23517,0.05225-0.48343,0.09146-0.73169,0.13066
		c-0.27438,0.02614-0.56181,0.05225-0.84927,0.05225H11.89613c-0.28745,0-0.5749-0.01305-0.84929-0.05225
		c-0.24825-0.02614-0.49651-0.06534-0.73169-0.13066c-0.52264-0.1176-1.01914-0.28746-1.47645-0.49652
		c-0.02613-0.01306-0.06533-0.02614-0.09146-0.0392c-0.15679-0.07838-0.30052-0.15678-0.4573-0.23517
		c-0.15679-0.09148-0.31358-0.18292-0.47037-0.28745c-0.36584-0.24826-0.70556-0.52263-1.01914-0.83623
		c-0.02613-0.02614-0.0392-0.0392-0.06533-0.06532c-0.02613-0.02614-0.0392-0.0392-0.06533-0.06534
		c-0.30052-0.31358-0.58797-0.65329-0.83622-1.01913c-0.10453-0.15678-0.19599-0.30052-0.28745-0.47038
		c-0.0784-0.14372-0.16986-0.30051-0.23519-0.45731c-0.01306-0.02614-0.02613-0.06534-0.0392-0.09148
		c-0.22212-0.47037-0.39198-0.96689-0.49651-1.47646c-0.05226-0.23517-0.09146-0.48343-0.11759-0.73169
		c-0.02613-0.27438-0.05226-0.56181-0.05226-0.84927v-25.50462c0-4.02431,3.26647-7.29077,7.29077-7.29077
		s7.29077,3.26646,7.29077,7.29077v18.20078h114.48337v-18.20078c0-4.02431,3.26646-7.29077,7.29077-7.29077
		c4.02429,0,7.29077,3.26646,7.29077,7.29077v25.50465H148.26488z"/>
</svg>
