<svg id="Layer_1" data-name="Layer 1" xmlns="http://www.w3.org/2000/svg" viewBox="0 0 391.81196 557.30986"><title>Up-Arrow</title><path d="M512.73259,202.32043q-31.61608-28.67953-63.23224-57.35907Q399.16274,99.29917,348.82506,53.6369q-11.48053-10.41421-22.96118-20.82849a9.75248,9.75248,0,0,0-6.69116-2.69171,9.61116,9.61116,0,0,0-7.45093,2.69171Q280.44894,61.54315,249.17607,90.278l-99.191,91.14081-22.74792,20.90167c-9.49829,8.72748,4.67389,22.842,14.14215,14.14216Q172.65212,187.72784,203.925,158.993q49.59547-45.57038,99.191-91.14081,7.86108-7.22315,15.72222-14.44622L374.954,104.30963l100.67529,91.32446q11.48062,10.41422,22.96118,20.8285C508.10472,225.09314,522.29045,210.99054,512.73259,202.32043Z" transform="translate(-124.09402 -30.08274)"/><path d="M309.14961,49V512.68628c0,21.343-.69508,42.81771,0,64.15275.00968.29727,0,.59628,0,.89379,0,12.86905,20,12.89037,20,0V114.04654c0-21.343.69507-42.8177,0-64.15274-.00969-.29727,0-.59628,0-.8938,0-12.86905-20-12.89036-20,0Z" transform="translate(-124.09402 -30.08274)"/></svg>